<ttFont>
          <CharString index="0">
            35.3333282471 0 27 11.6666564941 18.6666717529 23.3333435059 18 21.3333435059 9 28.6666564941 0 36 0 33.3333129883 -9.83332824707 28.1666870117 -19.6666717529 23 -19.6666717529 23 -26.1666564941 11.5 -32.6666717529 0 -32.6666564941 0 -26 -11.5 -19.3333435059 -23 -19.3333282471 -23 -9.66667175293 -28.1666870117 0 -33.3333129883 rrcurveto
            0 -35.3333435059 9.16667175293 -29 18.3333282471 -22.6666564941 18.3333435059 -22.6666564941 26.5 -11.3333435059 34.6666564941 0 rrcurveto
            return
          </CharString>
          <CharString index="1">
            372 680 -69 26 -377 -681 rlineto
            return
          </CharString>
          <CharString index="2">
            14.6666717529 0 12 -7.66668701172 9.33332824707 -15.3333129883 7.33332824707 -12.6666870117 3.66667175293 -14.3333129883 0 -16 0 -42.6666564941 -15.3333282471 -21.3333435059 -30.6666717529 0 -14.6666564941 0 -11.6666870117 7.33334350586 -8.66665649414 14.6666564941 -7.33334350586 12.6666564941 -3.66665649414 14.0000305176 0 15.3333129883 0 16 3.33334350586 14.3333129883 6.66665649414 12.6666870117 rrcurveto
            8.66665649414 15.3333129883 11.6666870117 7.66668701172 14.6666564941 0 rrcurveto
            return
          </CharString>
          <CharString index="3">
            10 20.6666717529 9 31.3333282471 8 42 8 40 4 32.6666564941 0 25.3333435059 rrcurveto
            97 hlineto
            -0.66667175293 -56.6666717529 -30.6666564941 -68 -60.6666717529 -79.3333282471 rrcurveto
            return
          </CharString>
          <CharString index="4">
            270 72 -359 -640 356 77 hlineto
            -267 -1 0 225 252 -1 0 75 -252 0 rlineto
            return
          </CharString>
          <CharString index="5">
            63 22 0 629 -82 0 0 -451 -300 455 -74 0 0 -644 83 1 0 463 rlineto
            146.666656494 -208.666671753 103.333343506 -158.333328247 60 -108 rrcurveto
            return
          </CharString>
          <CharString index="6">
            64.6666564941 0 51.6666870117 -28 38.6666564941 -56 34.6666870117 -50 17.3333129883 -58.6666564941 0 -67.3333435059 0 -64.6666717529 -18.6666870117 -57 -37.3333129883 -49.3333282471 -40.6666564941 -53.3333435059 -52 -26.6666564941 -63.3333435059 0 -62.6666564941 0 -50.6666717529 27 -38.6666717529 54 -34.6666717529 48.6666717529 -17.3333282471 57 0 65.3333282471 rrcurveto
            0 68 17.3333282471 58.6666564941 34.6666717529 49.3333435059 39.3333282471 55.3333129883 52.3333282471 27.6666870117 65.3333435059 0 rrcurveto
            return
          </CharString>
          <CharString index="7">
            62.6666564941 0 50.8333435059 17 39 34 39 34 19.5 48 0 62 0 64 -17 46.6666564941 -34 29.3333435059 -22.6666564941 19.3333435059 -47.6666870117 22 -72.6666564941 24.6666564941 -69.3333282471 23.3333435059 -34.6666717529 32.6666564941 0 42 0 67.3333129883 34 33.6666870117 68 0 rrcurveto
            49.3333435059 0 42.3333129883 -16 35.3333435059 -32 rrcurveto
            42 63 rlineto
            -51.3333435059 40.6666870117 -56.3333129883 20.3333129883 -61.3333435059 0 -52 0 -44.3333282471 -15.3333129883 -36.6666717529 -30.6666870117 -39.3333435059 -32.6666870117 -19.9999847412 -41.6666259766 -0.66667175293 -50.6666870117 -0.66667175293 -68 25.6666717529 -50.3333435059 52 -32.6666564941 rrcurveto
            147 -61 rlineto
            52.6666564941 -22 26.3333435059 -33.3333282471 0 -44.6666717529 0 -37.3333282471 -11 -28.8333282471 -22 -20.3333435059 -22 -20.3333435059 -29.6666564941 -10.1666564941 -37.3333435059 0 -62.6666717529 0 -51.6666717529 23.6666564941 -40.6666564941 47.3333435059 rrcurveto
            -46 -64 rlineto
            20 -27.3333282471 29.6666564941 -21 39.3333435059 -14.6666717529 34.6666717529 -13.3333282471 36.3333282471 -6.66667175293 38 0 rrcurveto
            return
          </CharString>
          <CharString index="8">
            48 59 -210 96 -47 -65 rlineto
            return
          </CharString>
          <CharString index="9">
            48 0 36.3333435059 -21.3333435059 24.6666564941 -42.6666564941 20.6666564941 -35.3333435059 10.3333435059 -43.3333129883 0 -51.3333435059 0 -54 -11.3333435059 -44.6666717529 -22.6666564941 -35.3333282471 -26 -42 -38.6666564941 -21 -51.3333435059 0 -49.3333282471 0 -37.6666717529 20.6666564941 -26 41.3333435059 -22 34 -11 43.3333282471 0 52.6666717529 rrcurveto
            0 55.3333435059 11.6666717529 45.6666564941 23.3333282471 36 28 41.3333435059 40.3333282471 20.6666564941 52.6666717529 0 rrcurveto
            return
          </CharString>
          <CharString index="10">
            54.6666564941 0 44.5 15.3333282471 34.3333435059 30.6666717529 34.3333435059 30.6666717529 17.1666564941 42.3333282471 0 54 0 53.3333282471 -26.6666564941 39 -53.3333435059 24.6666717529 rrcurveto
            -144 47 rlineto
            -26.6666717529 9.33334350586 -13.3333282471 18 0 26.6666564941 0 48.6666564941 29 24.3333435059 58 0 34 0 40.3333435059 -15 46.6666564941 -30 rrcurveto
            26 63 rlineto
            -50.6666564941 30 -48 15.3333129883 -45.3333435059 0.666687011719 -48.6666717529 0.666687011719 -39.6666564941 -14.0000305176 -30.6666717529 -28.6666564941 -30.6666564941 -28.6666564941 -15.3333435059 -38.3333435059 0 -48 0 -48 19.3333435059 -34 38.6666564941 -20 39.3333282471 -14.6666717529 40 -12.6666564941 40.6666717529 -10.6666717529 52.6666564941 -14 26.3333435059 -25.3333282471 0 -36.6666717529 rrcurveto
            0 -22.6666564941 -10 -20 -20 -17.3333435059 -20 -17.3333282471 -21.6666717529 -8.66667175293 -23.3333282471 0 -54.6666717529 0 -44.6666717529 16.6666564941 -34.6666564941 33.3333435059 rrcurveto
            -40 -61 rlineto
            42 -38.6666717529 55.3333282471 -19.3333282471 68.6666717529 0 rrcurveto
            return
          </CharString>
          <CharString index="11">
            209 565 -71 17 -129 -353 -151 354 -77 -21 192 -436 -41 -96 rlineto
            -25.3333282471 -45.3333435059 -28.0000152588 -22.3333129883 -30.6666564941 0.666656494141 -14.6666564941 0.666656494141 -16.6666870117 4.66668701172 -18.6666564941 8.66665649414 rrcurveto
            -25 -71 rlineto
            36 -12 23 -6 10 0 33.3333435059 0 31.8333282471 10.8333282471 30.3333282471 21.6666717529 30.3333282471 21.6666717529 20.8333435059 26.4999847412 11.3333282471 31.3333435059 rrcurveto
            return
          </CharString>
          <CharString index="12">
            -143 93 0 -71 143 -113 137 113 0 71 rlineto
            return
          </CharString>
          <CharString index="13">
            0 -92 32.1666564941 -78.1666717529 64.3333435059 -64.3333282471 64.3333282471 -64.3333282471 78.1666717529 -32.1666717529 92 0 92 0 78.1666870117 32.1666717529 64.3333129883 64.3333282471 64.3333129883 64.3333282471 32.1666870117 78.1666717529 0 92 0 92 -32.1666870117 78.1666564941 -64.3333129883 64.3333435059 -64.3333129883 64.3333129883 -78.1666870117 32.1666870117 -92 0 rrcurveto
            -92 0 -78.1666717529 -32.1666870117 -64.3333282471 -64.3333129883 -64.3333435059 -64.3333435059 -32.1666564941 -78.1666564941 0 -92 rrcurveto
            return
          </CharString>
          <CharString index="14">
            177 355 -76 23 -143 -297 -145 297 -80 -23 178 -355 0 -272 89 0 rlineto
            return
          </CharString>
          <CharString index="15">
            14.6666564941 0 12 5 9.33334350586 10 9.33334350586 10 4.66665649414 12.3333129883 0 14.6666870117 0 14 -4.83334350586 12.1666870117 -9.66665649414 10.3333129883 -9.66665649414 10.3333129883 -11.8333435059 5.16668701172 -14 0 -14.6666564941 0 -12 -5 -9.33334350586 -10 -9.33334350586 -10 -4.66665649414 -12.3333129883 0 -14.6666870117 rrcurveto
            0 -14.6666870117 4.66665649414 -12.3333129883 9.33334350586 -10 9.33334350586 -10 12 -5 14.6666564941 0 rrcurveto
            return
          </CharString>
          <CharString index="16">
            85 14 -215 650 -81 0 -212 -654 82 -10 57 189 225 0 rlineto
            return
          </CharString>
          <CharString index="17">
            92 -303 -184 0 rlineto
            return
          </CharString>
          <CharString index="18">
            210 90 -47 65 -210 -96 rlineto
            return
          </CharString>
          <CharString index="19">
            142 -93 0 71 -142 113 -137 -113 0 -71 rlineto
            return
          </CharString>
          <CharString index="20">
            9.33334350586 0 13.1666564941 3.66668701172 17 7.33331298828 17 7.33331298828 11.5 7.33337402344 6 7.33331298828 rrcurveto
            -26 60 rlineto
            -16.6666564941 -16.6666870117 -16.6666870117 -8.33331298828 -16.6666564941 0 -11.3333435059 0 -20.8333129883 11.5 -30.3333435059 23 -30.3333435059 23 -23.4999847412 11.1666870117 -16.6666717529 -0.666687011719 -17.3333282471 -0.666687011719 -18.1666717529 -5 -19 -9.33331298828 -19 -9.33331298828 -14.1666717529 -11.6666870117 -9.33332824707 -14 rrcurveto
            27 -59 rlineto
            20.6666717529 28 23.3333282471 14 26 0 8.66667175293 0 20.4999847412 -11.5 32.3333435059 -23 32.3333435059 -23 24.5 -11.5 16.6666564941 0 rrcurveto
            return
          </CharString>
          <CharString index="21">
            49 59 -211 96 -46 -65 rlineto
            return
          </CharString>
          <CharString index="22">
            211 90 -47 65 -210 -96 rlineto
            return
          </CharString>
          <CharString index="23">
            142 -93 0 71 -142 113 -138 -113 0 -71 rlineto
            return
          </CharString>
          <CharString index="24">
            14.6666717529 0 11.8333282471 5 9 10 9 10 4.5 12.3333129883 0 14.6666870117 0 14.6666870117 -4.5 12.3333129883 -9 10 -9 10 -11.8333282471 5 -14.6666717529 0 -14.6666717529 0 -12 -5 -9.33332824707 -10 -9.33334350586 -10 -4.66665649414 -12.3333129883 0 -14.6666870117 rrcurveto
            0 -14.6666870117 4.66665649414 -12.3333129883 9.33334350586 -10 9.33332824707 -10 12 -5 14.6666717529 0 rrcurveto
            return
          </CharString>
          <CharString index="25">
            14.6666717529 0 12 5 9.33332824707 10 9.33334350586 10 4.66665649414 12.3333129883 0 14.6666870117 0 14 -4.83334350586 12.1666870117 -9.66665649414 10.3333129883 -9.66667175293 10.3333129883 -11.8333282471 5.16668701172 -14 0 -14.6666717529 0 -12 -5 -9.33332824707 -10 -9.33332824707 -10 -4.66667175293 -12.3333129883 0 -14.6666870117 rrcurveto
            0 -14.6666870117 4.66667175293 -12.3333129883 9.33332824707 -10 9.33332824707 -10 12 -5 14.6666717529 0 rrcurveto
            return
          </CharString>
          <CharString index="26">
            14.6666717529 0 11.8333282471 5 9 10 9 10 4.5 12.3333129883 0 14.6666870117 0 14.6666870117 -4.5 12.3333129883 -9 10 -9 10 -11.8333282471 5 -14.6666717529 0 -14.6666717529 0 -12 -5 -9.33332824707 -10 -9.33332824707 -10 -4.66667175293 -12.3333129883 0 -14.6666870117 rrcurveto
            0 -14.6666870117 4.66667175293 -12.3333129883 9.33332824707 -10 9.33332824707 -10 12 -5 14.6666717529 0 rrcurveto
            return
          </CharString>
          <CharString index="27">
            9.33334350586 0 13.1666564941 3.66668701172 17 7.33331298828 17 7.33331298828 11.5 7.33337402344 6 7.33331298828 rrcurveto
            -26 60 rlineto
            -16.6666564941 -16.6666870117 -16.6666870117 -8.33331298828 -16.6666564941 0 -11.3333435059 0 -20.8333129883 11.5 -30.3333435059 23 -30.3333435059 23 -23.5 11.1666870117 -16.6666564941 -0.666687011719 -17.3333282471 -0.666687011719 -18.1666717529 -5 -19 -9.33331298828 -19 -9.33331298828 -14.1666717529 -11.6666870117 -9.33332824707 -14 rrcurveto
            27 -59 rlineto
            20.6666717529 28 23.3333282471 14 26 0 8.66665649414 0 20.5 -11.5 32.3333435059 -23 32.3333435059 -23 24.5 -11.5 16.6666564941 0 rrcurveto
            return
          </CharString>
          <CharString index="28">
            94 0 73.6666564941 33.3333282471 53.3333435059 66.6666717529 48.6666870117 62 24.3333129883 79.3333282471 0 96.6666717529 0 90.6666564941 -24.6666870117 75.6666870117 -49.3333129883 60.6666564941 -53.3333435059 64.6666870117 -71 32.3333129883 -88.6666564941 0 -89.3333282471 0 -72 -32.3333129883 -54.6666717529 -64.6666870117 -52 -60.6666564941 -26 -75.6666870117 0 -90.6666564941 rrcurveto
            0 -96.6666717529 23.3333282471 -78.6666564941 46.6666717529 -60.6666717529 51.3333282471 -68 72.3333435059 -34 93.3333282471 0 rrcurveto
            return
          </CharString>
          <CharString index="29">
            410 -90 -410 vlineto
            0 -49.3333282471 -10.3333435059 -40 -20.6666564941 -30.6666717529 -24 -34.6666564941 -35.6666564941 -17.3333435059 -47.3333435059 0 rrcurveto
            -85.3333282471 -42.6666717529 57.3333435059 114.666656494 hvcurveto
            410 -89 -410 vlineto
            0 -72.6666717529 17.3333435059 -58.3333282471 34.6666564941 -44 37.3333282471 -48 54 -24 70.6666717529 0 72.6666564941 0 56.6666870117 22.6666717529 40.6666564941 45.3333282471 40.6666564941 45.3333435059 20.3333435059 59.6666564941 0 74 rrcurveto
            return
          </CharString>
          <CharString index="30">
            32.6666564941 0 27.3333435059 11.6666717529 22 23.3333282471 rrcurveto
            -16 52 rlineto
            -20.6666564941 -14.6666717529 -14 -7 -7.33334350586 0.66667175293 -10.6666564941 0 -7 6.66667175293 -3.33334350586 13.3333282471 rrcurveto
            282 vlineto
            0 46 -15.6666564941 37.3333435059 -31.3333435059 28.6666564941 -31.3333435059 28.6666564941 -38.6666564941 14.3333435059 -46 0 -24 0 -30.6666717529 -9 -37.3333282471 -18 -34 -16 -27.3333435059 -17.3333435059 -20.6666564941 -18.6666564941 rrcurveto
            41 -56 rlineto
            52 42.6666564941 44.3333282471 21.3333435059 36.6666717529 0 22.6666564941 0 19.8333435059 -7 17 -14 17 -14 8.5 -18 0 -22 rrcurveto
            -63 vlineto
            -49.3333435059 -4.66665649414 -35.9999847412 -5 -22.6666717529 -5.33334350586 -59.3333282471 -14 -40.3333282471 -14.6666564941 -21.3333435059 -15.3333435059 -32.6666717529 -24 -16.3333282471 -39 0 -54 0 -42 12.5 -34.3333282471 25 -26.6666717529 25 -26.6666717529 33.5 -13.3333282471 42 0 38.6666717529 0 33.6666717529 6.66667175293 28.6666564941 13.3333282471 rrcurveto
            12 5.33332824707 17 11 22 16.6666717529 14.6666564941 -32 21 -16 27.3333435059 0 rrcurveto
            return
          </CharString>
          <CharString index="31">
            -101 vlineto
            0 -26 -16.3333435059 -21.3333435059 -32.6666564941 -16.6666564941 -27.3333282471 -14 -26.6666717529 -7 -26 0 -24 0 -18.6666717529 7.16667175293 -13.3333282471 14.3333282471 -13.3333435059 14.3333435059 -6.66665649414 19.1666564941 0 24 0.666656494141 44.6666717529 24.0000152588 28.3333282471 47.3333282471 12 28.6666717529 6.66667175293 19 4.33332824707 9.33332824707 2 rrcurveto
            30 6 25.3333435059 3 20.6666564941 0 rrcurveto
            return
          </CharString>
          <CharString index="32">
            330 61 hlineto
            0 55.3333435059 -16.3333435059 45.3333129883 -32.6666564941 35.3333435059 -32.6666564941 35.3333435059 -43.6666870117 17.6666564941 -54.6666564941 0 -74.6666717529 0 -58.3333282471 -25 -42 -50 -40 -47.3333435059 -20 -61.6666564941 0 -76 0 -61.3333282471 12.3333282471 -52.3333435059 24.6666717529 -43.3333282471 38.6666564941 -68 64.6666717529 -34 90.6666717529 0 rrcurveto
            65.3333435059 0 59.3333129883 25.3333282471 53.3333435059 50.6666717529 rrcurveto
            -39 56 rlineto
            -48 -42.6666564941 -43.6666564941 -21.3333435059 -39.3333435059 0 -24 0 -23 5 -22 10 -56.6666717529 26 -28.3333282471 62 0 98 rrcurveto
            return
          </CharString>
          <CharString index="33">
            -12 -244 vlineto
            10.6666717529 41.3333435059 14.6666564941 30 18.6666717529 18.6666564941 21.3333282471 20.6666564941 30.6666717529 10.3333435059 40 0 rrcurveto
            72 36 -36.3333435059 -72.6666564941 hvcurveto
            return
          </CharString>
          <CharString index="34">
            82.6666564941 0 62.3333435059 33.3333282471 42 66.6666717529 30.6666564941 48.6666717529 15.3333435059 54.3333282471 0 60 0 86.6666564941 -26 67 -52 47.3333435059 -42.6666564941 39.3333435059 -51 19.6666564941 -59.3333435059 0 -60 0 -52.3333282471 -19.6666564941 -44.6666717529 -39.3333435059 -54 -48 -27 -67 0 -86 rrcurveto
            0 -62.6666717529 13.6666717529 -54 27.3333282471 -45.3333282471 40.6666564941 -67.3333282471 65.0000152588 -33.6666717529 89.3333282471 0 rrcurveto
            return
          </CharString>
          <CharString index="35">
            17.3333435059 0 14.3333129883 6.5 11.3333435059 13 11.3333435059 13 5.66665649414 15.5 0 18 0 18 -5.66665649414 15.5 -11.3333435059 13 -11.3333435059 13 -14.3333129883 6.5 -17.3333435059 0 -17.3333282471 0 -14.3333435059 -6.5 -11.3333282471 -13 -11.3333282471 -13 -5.66667175293 -15.5 0 -18 rrcurveto
            0 -18 5.66667175293 -15.5 11.3333282471 -13 11.3333282471 -13 14.3333435059 -6.5 17.3333282471 0 rrcurveto
            return
          </CharString>
          <CharString index="36">
            495 -78 -331 vlineto
            0 -27.3333282471 -16 -25.3333282471 -32 -23.3333435059 -32 -23.3333435059 -30 -11.6666564941 -28 0 rrcurveto
            -58.6666717529 -29.3333282471 37 74 hvcurveto
            331 -79 -335 vlineto
            0 -46.6666564941 12.6666564941 -40.6666870117 25.3333435059 -34.6666564941 28 -37.3333282471 36.6666717529 -18.6666717529 45.3333282471 0 52.6666564941 0 51.3333435059 23.3333282471 50 46.6666717529 4.66665649414 -25.3333282471 3.33334350586 -17.3333435059 2 -9.33332824707 rrcurveto
            return
          </CharString>
          <CharString index="37">
            20 0 16 6.5 12 13 12 13 6 16.5 0 20 0 20.6666564941 -6 16.6666870117 -12 12.6666564941 -12 12.6666564941 -16 6.33334350586 -20 0 -20.6666564941 0 -16.3333435059 -6.33334350586 -12 -12.6666564941 -12 -12.6666564941 -6 -16.6666870117 0 -20.6666564941 rrcurveto
            0 -20 6.16665649414 -16.5 12.3333435059 -13 12.3333435059 -13 16.1666564941 -6.5 20 0 rrcurveto
            return
          </CharString>
          <CharString index="38">
            -10 -21.3333129883 -9 -31 -8 -40.6666870117 -8 -40.6666870117 -4 -33 0 -25.3333129883 rrcurveto
            -97 hlineto
            0.666656494141 56.6666870117 30.6666870117 68 60.6666564941 79.3333129883 rrcurveto
            return
          </CharString>
          <CharString index="39">
            10 20.6666870117 9 31.3333129883 8 42 8 40 4 32.6666870117 0 25.3333129883 rrcurveto
            97 hlineto
            -0.66667175293 -56.6666870117 -30.6666564941 -68 -60.6666717529 -79.3333129883 rrcurveto
            return
          </CharString>
        <CharString name=".notdef">
          63 hmoveto
          375 860 -375 hlineto
          62 -797 rmoveto
          735 250 -735 vlineto
          endchar
        </CharString>
        <CharString name=".null">
          -541 endchar
        </CharString>
        <CharString name="A">
          27 453 -10 rmoveto
          85 14 -216 650 -80 0 -213 -654 82 -10 58 189 225 0 rlineto
          -113 372 rmoveto
          93 -303 -184 0 rlineto
          endchar
        </CharString>
        <CharString name="AE">
          321 281 551 rmoveto
          93 -303 -184 0 rlineto
          362 320 rmoveto
          270 72 -359 -413 hlineto
          -141 427 -80 0 -213 -654 82 -10 58 189 225 0 55 -179 370 0 0 77 -267 -1 0 225 252 -1 0 75 -252 0 rlineto
          endchar
        </CharString>
        <CharString name="Aacute">
          27 458 -10 rmoveto
          -91 callsubr
          -112 372 rmoveto
          -90 callsubr
          8 439 rmoveto
          -89 callsubr
          endchar
        </CharString>
        <CharString name="Acircumflex">
          27 458 -10 rmoveto
          -91 callsubr
          -112 372 rmoveto
          -90 callsubr
          88 501 rmoveto
          -88 callsubr
          endchar
        </CharString>
        <CharString name="Adieresis">
          39 458 -10 rmoveto
          -91 callsubr
          -112 372 rmoveto
          -90 callsubr
          201 446 rmoveto
          14.6666564941 0 12 5 9.33334350586 10 9.33334350586 10 4.66665649414 12.3333129883 0 14.6666870117 0 14 -4.83334350586 12 -9.66665649414 10 -9.66665649414 10 -11.8333435059 5 -14 0 -14.6666564941 0 -12 -4.83331298828 -9.33334350586 -9.66668701172 -9.33334350586 -9.66668701172 -4.66665649414 -12.1666259766 0 -14.6666870117 rrcurveto
          -34.6666870117 16.6666564941 -17.3333129883 33.3333435059 vhcurveto
          -210 hmoveto
          14.6666717529 0 12 5 9.33332824707 10 9.33332824707 10 4.66667175293 12.3333129883 0 14.6666870117 0 14 -4.83332824707 12 -9.66667175293 10 -9.66667175293 10 -11.8333282471 5 -14 0 -14.6666717529 0 -12 -4.83331298828 -9.33332824707 -9.66668701172 -9.33332824707 -9.66668701172 -4.66667175293 -12.1666259766 0 -14.6666870117 rrcurveto
          -34.6666870117 16.6666717529 -17.3333129883 33.3333282471 vhcurveto
          endchar
        </CharString>
        <CharString name="Agrave">
          39 458 -10 rmoveto
          -91 callsubr
          -112 372 rmoveto
          -90 callsubr
          170 438 rmoveto
          -99 callsubr
          endchar
        </CharString>
        <CharString name="Aring">
          39 458 -10 rmoveto
          -91 callsubr
          -112 372 rmoveto
          -90 callsubr
          98 438 rmoveto
          26 0 21.6666564941 8 17.3333435059 16 17.3333435059 16 8.66665649414 21 0 26 0 25.3333129883 -8.66665649414 20.6666870117 -17.3333435059 16 -17.3333435059 16 -21.6666564941 8 -26 0 -26 0 -21.6666717529 -8 -17.3333282471 -16 -17.3333282471 -16 -8.66667175293 -20.6666870117 0 -25.3333129883 rrcurveto
          0 -26 8.66667175293 -21 17.3333282471 -16 17.3333282471 -16 21.6666717529 -8 26 0 rrcurveto
          130 vmoveto
          28.6666564941 14.3333435059 -14.3333129883 -28.6666870117 -29.3333129883 -14.3333435059 -14.6666870117 -28.6666564941 -28.6666564941 -14.3333435059 14.6666870117 29.3333129883 28.6666870117 14.3333435059 14.3333129883 28.6666564941 hvcurveto
          endchar
        </CharString>
        <CharString name="Atilde">
          39 458 -10 rmoveto
          -91 callsubr
          -112 372 rmoveto
          -90 callsubr
          169 421 rmoveto
          -87 callsubr
          endchar
        </CharString>
        <CharString name="B">
          -17 266 hmoveto
          61.3333435059 -0.66667175293 48.6666564941 15 36 30.6666717529 39.3333435059 32.6666564941 19.6666564941 46.3333435059 0 60 0 89.3333435059 -51 55.6666564941 -102 22 29.3333435059 8 22 9 14.6666564941 10 28 20 14 38 0 56 0 50.6666870117 -16 38.6666259766 -32 26.6666870117 rrcurveto
          -30 24.6666870117 -40.6666564941 12.3333129883 -51.3333435059 0 rrcurveto
          -14 hlineto
          -7.33332824707 -0.666687011719 -4.33334350586 -0.333312988281 -1.33332824707 0 rrcurveto
          -166 -3 0 -639 rlineto
          172 583 rmoveto
          74 0 37.3333435059 -34.3333129883 0.666656494141 -68.6666870117 0 -34.6666564941 -12.6666564941 -27.3333435059 -25.3333435059 -20 -22.6666564941 -18 -29.3333435059 -8.66665649414 -36 0.666656494141 rrcurveto
          -69 1 0 207 rlineto
          46 2 27.6666717529 1 9.33332824707 0 rrcurveto
          9 -273 rmoveto
          39.3333435059 0 33.3333129883 -11.5 27.3333435059 -23 27.3333435059 -23 13.6666564941 -30.8333282471 0 -38.6666717529 rrcurveto
          -78.6666564941 -46.3333435059 -39.3333435059 -92.6666564941 vhcurveto
          -94 245 hlineto
          endchar
        </CharString>
        <CharString name="C">
          -2 311 -8 rmoveto
          38 0 34 4.66667175293 30 9.33332824707 24.6666564941 7.33332824707 32 14.6666717529 39.3333435059 22 rrcurveto
          -39 65 rlineto
          -50 -28.6666564941 -53.3333435059 -14.3333435059 -56.6666564941 0 -60 0 -47.6666717529 27 -35.3333282471 54 -30.6666717529 46.6666717529 -15.3333282471 54.6666564941 0 62.6666717529 0 63.3333435059 14.3333282471 56.6666564941 28.6666717529 50 36.6666717529 63.3333129883 51.3333282471 31.6666870117 66 0 37.3333435059 0 49 -18.6666870117 60.6666564941 -37.3333129883 rrcurveto
          38 79 rlineto
          -19.3333435059 11.3333129883 -26.3333129883 11.3333740234 -33.3333435059 11.3333129883 -42.6666564941 14 -37 7 -31.3333435059 0 -88.6666717529 -0.666687011719 -70.3333282471 -34 -52 -67.3333129883 -47.3333282471 -62 -23.6666717529 -76.3333435059 0 -90.6666564941 0 -94 22.6666717529 -77.6666717529 45.3333282471 -61.3333282471 50.6666717529 -69.3333282471 70.6666564941 -34.6666717529 90.6666717529 0 rrcurveto
          endchar
        </CharString>
        <CharString name="Ccedilla">
          29 348 -219 rmoveto
          27.3333435059 0 22.8333129883 7.83332824707 18.3333435059 15.6666717529 18.3333435059 15.6666717529 9.16665649414 21.1666564941 0 26.6666717529 0 26 -8.5 21.3333435059 -17 16.6666564941 -17 16.6666717529 -21.5 8.33332824707 -26 0 -10.6666564941 0 -8.33334350586 -1.33332824707 -6 -2.66667175293 rrcurveto
          3 39 rlineto
          34 1.33332824707 30.6666564941 5.33334350586 27.3333435059 9.33332824707 21.3333435059 7.33332824707 30 14 38.6666564941 20.6666717529 rrcurveto
          -38 65 rlineto
          -50.6666564941 -28.6666564941 -53.6666870117 -14.3333435059 -56.6666564941 0 -60 0 -47.6666717529 27 -35.3333282471 54 -30.6666717529 46.6666717529 -15.3333282471 54.6666564941 0 62.6666717529 0 63.3333435059 14.3333282471 56.6666564941 28.6666717529 50 36.6666717529 63.3333129883 51.3333282471 31.6666870117 66 0 37.3333435059 0 49 -18.6666870117 60.6666564941 -37.3333129883 rrcurveto
          38 79 rlineto
          -21.3333435059 12 -26 11.3333129883 -30.6666564941 10.6666870117 -42 14 -37.3333435059 7 -32.6666564941 0 -88.6666717529 -0.666687011719 -70.3333282471 -34 -52 -67.3333129883 -46.6666717529 -61.3333435059 -23.3333282471 -76.3333129883 0 -91.3333435059 0 -84 18.6666717529 -72 37.3333282471 -60 43.3333282471 -68.6666717529 60.6666717529 -39.3333282471 78 -10 rrcurveto
          -5 -85 46 -21 rlineto
          14 10 11.6666564941 5 9.33334350586 0 rrcurveto
          22 11 -13 -26 -22.6666717529 -11.6666564941 -11.3333282471 -23.3333435059 hvcurveto
          -15.3333435059 0 -17 10.6666717529 -18.6666564941 21.3333282471 rrcurveto
          -37 -34 rlineto
          15.3333435059 -32 29 -16 42.6666564941 0 rrcurveto
          endchar
        </CharString>
        <CharString name="D">
          24 215 -2 rmoveto
          104 0 79.1666564941 28.1666717529 54.3333435059 56.3333282471 54.3333435059 56.3333282471 26.8333435059 80.1666717529 -0.666687011719 104 -0.666687011719 113.333343506 -25.9999694824 82.3333435059 -51.3333435059 51.3333129883 -51.3333435059 51.3333129883 -82 25.6666870117 -112.666656494 0 -51.3333282471 0 -48.6666717529 -1 -46 -2 rrcurveto
          -642 vlineto
          16.6666564941 0 25.3333435059 -0.66667175293 34 -1.33332824707 34 -1.33332824707 25.3333282471 -0.66667175293 16.6666717529 0 rrcurveto
          223 314 rmoveto
          0 -65.3333282471 -16 -54.6666717529 -32 -44 -35.3333435059 -49.3333435059 -49.3333129883 -24.6666564941 -63.3333435059 0 rrcurveto
          -90 507 hlineto
          36 1.33331298828 27.6666717529 0.666687011719 19.3333282471 0 135.333343506 0 67.6666564941 -90.3333435059 0 -180.666656494 rrcurveto
          endchar
        </CharString>
        <CharString name="Delta">
          148 85 hmoveto
          557 0 -226 657 -86 0 rlineto
          43 -92 rmoveto
          156 -509 -331 0 rlineto
          endchar
        </CharString>
        <CharString name="E">
          -52 152 568 rmoveto
          -103 callsubr
          endchar
        </CharString>
        <CharString name="Eacute">
          -72 157 568 rmoveto
          -103 callsubr
          15 312 rmoveto
          -85 callsubr
          endchar
        </CharString>
        <CharString name="Ecircumflex">
          -52 157 568 rmoveto
          -103 callsubr
          95 374 rmoveto
          -84 callsubr
          endchar
        </CharString>
        <CharString name="Edieresis">
          -52 157 568 rmoveto
          -103 callsubr
          208 321 rmoveto
          -92 callsubr
          -209 hmoveto
          -83 callsubr
          endchar
        </CharString>
        <CharString name="Egrave">
          -52 157 568 rmoveto
          -103 callsubr
          177 311 rmoveto
          -86 callsubr
          endchar
        </CharString>
        <CharString name="Eth">
          24 152 335 rmoveto
          246 vlineto
          36 1.33331298828 27.6666717529 0.666687011719 19.3333282471 0 135.333343506 0 67.6666564941 -90.3333435059 0 -180.666656494 0 -65.3333282471 -16 -54.6666717529 -32 -44 -35.3333435059 -49.3333435059 -49.3333129883 -24.6666564941 -63.3333435059 0 rrcurveto
          -90 193 68 68 hlineto
          -214 hmoveto
          -68 57 -265 vlineto
          16.6666564941 0 25.3333435059 -0.66667175293 34 -1.33332824707 34 -1.33332824707 25.3333282471 -0.66667175293 16.6666717529 0 104 0 79.1666564941 28.1666717529 54.3333435059 56.3333282471 54.3333435059 56.3333282471 26.8333435059 80.1666717529 -0.666687011719 104 -0.666687011719 113.333343506 -25.9999694824 82.3333435059 -51.3333435059 51.3333129883 -51.3333435059 51.3333129883 -82 25.6666870117 -112.666656494 0 rrcurveto
          -51.3333282471 0 -48.6666717529 -1 -46 -2 rrcurveto
          -309 vlineto
          endchar
        </CharString>
        <CharString name="F">
          -51 152 568 rmoveto
          271 72 -360 -640 89 300 254 75 -254 hlineto
          endchar
        </CharString>
        <CharString name="G">
          41 519 61 rmoveto
          314 -230 -74 142 -198 vlineto
          -38.6666564941 -20.6666564941 -43 -10.3333435059 -47.3333435059 0 -57.3333282471 0 -45.6666717529 27.6666564941 -34 55.3333435059 -28.6666717529 46.6666717529 -14.3333282471 54 0 61.3333282471 0 61.3333435059 13.6666717529 56 27.3333282471 50.6666564941 34.6666717529 64.6666870117 49 32.3333129883 63.3333282471 0 48.6666564941 0 52 -19 55.3333435059 -38 rrcurveto
          37 75 rlineto
          -21.3333435059 18 -32 14.6666870117 -42.6666564941 11.3333129883 -38.6666564941 10.6666870117 -35.3333435059 5.33331298828 -32 0 -85.3333282471 0 -68.3333435059 -38.6666870117 -51.3333282471 -77.3333129883 -44 -66 -21.6666717529 -73.6666564941 0.66667175293 -81.3333435059 0.66667175293 -89.3333282471 23 -75.3333435059 45.3333282471 -61.3333282471 50 -68.6666717529 68.3333282471 -34.3333282471 86.6666717529 0 rrcurveto
          42.6666564941 0 38 5.66667175293 33.3333435059 11.3333282471 26.6666564941 9.33332824707 33.3333435059 16.6666717529 40 24 rrcurveto
          endchar
        </CharString>
        <CharString name="H">
          41 431 hmoveto
          88 640 -88 -265 -279 265 -89 -640 89 300 279 hlineto
          endchar
        </CharString>
        <CharString name="I">
          -326 63 hmoveto
          89 642 -89 hlineto
          endchar
        </CharString>
        <CharString name="Iacute">
          -326 68 hmoveto
          89 642 -89 hlineto
          -32 45 rmoveto
          -89 callsubr
          endchar
        </CharString>
        <CharString name="Icircumflex">
          -326 68 hmoveto
          89 642 -89 hlineto
          47 107 rmoveto
          -88 callsubr
          endchar
        </CharString>
        <CharString name="Idieresis">
          -326 68 hmoveto
          89 642 -89 hlineto
          150 54 rmoveto
          -82 callsubr
          -209 hmoveto
          -81 callsubr
          endchar
        </CharString>
        <CharString name="Igrave">
          -326 68 hmoveto
          89 642 -89 hlineto
          130 44 rmoveto
          -99 callsubr
          endchar
        </CharString>
        <CharString name="J">
          -326 152 69 rmoveto
          569 -89 -577 vlineto
          -92 -32.6666717529 -46 -65.3333282471 vhcurveto
          -22.6666717529 0 -22.3333282471 11.6666564941 -22 23.3333435059 rrcurveto
          -46 -67 rlineto
          27.3333435059 -33.3333282471 33.3333129883 -16.6666717529 39.3333435059 0 rrcurveto
          133.333343506 66.6666564941 76 152 hvcurveto
          endchar
        </CharString>
        <CharString name="K">
          -10 420 -21 rmoveto
          106 23 -137 158 rlineto
          -61.3333435059 72 -44.3333129883 58.3333435059 -27.3333435059 44.6666564941 rrcurveto
          216 280 -70 50 rlineto
          -59.3333435059 -85.3333129883 -83.3333129883 -113.333343506 -107.333343506 -141.333343506 rrcurveto
          315 -89 -640 89 206 vlineto
          47 70 rlineto
          endchar
        </CharString>
        <CharString name="L">
          -40 63 hmoveto
          375 72 -286 569 -89 hlineto
          endchar
        </CharString>
        <CharString name="Lslash">
          -40 6 335 rmoveto
          0 -78 57 21 0 -278 375 0 0 72 -286 0 0 240 68 25 0 78 -68 -25 0 251 -89 0 0 -285 rlineto
          endchar
        </CharString>
        <CharString name="M">
          252 630 hmoveto
          89 642 -117 hlineto
          -203 -515 -198 515 -127 0 0 -642 82 0 0 515 197 -516 83 0 194 512 rlineto
          endchar
        </CharString>
        <CharString name="N">
          41 456 -11 rmoveto
          -102 callsubr
          endchar
        </CharString>
        <CharString name="Ntilde">
          29 461 -11 rmoveto
          -102 callsubr
          -76 670 rmoveto
          -80 callsubr
          endchar
        </CharString>
        <CharString name="O">
          103 319 -16 rmoveto
          93.3333435059 0 73.3333129883 33.6666717529 53.3333435059 67.3333282471 49.3333129883 62 24.6666870117 79 0 96 0 90.6666564941 -24.6666870117 75.6666870117 -49.3333129883 60.6666564941 -53.3333435059 64.6666870117 -71 32.3333129883 -88.6666564941 0 -89.3333282471 0 -72 -32.3333129883 -54.6666717529 -64.6666870117 -52 -60.6666564941 -26 -75.6666870117 0 -90.6666564941 rrcurveto
          0 -96.6666717529 23.3333282471 -78.6666564941 46.6666717529 -60.6666717529 51.3333282471 -68 72.3333435059 -34 93.3333282471 0 rrcurveto
          5 588 rmoveto
          -101 callsubr
          endchar
        </CharString>
        <CharString name="OE">
          487 609 hmoveto
          355 84 -267 hlineto
          -1 225 258 0 0 75 -255 0 0 193 265 0 0 72 -355 0 0 -200 rlineto
          -58.6666870117 138.666687012 -91.3333129883 69.3333129883 -124 0 -89.3333282471 0 -71.6666717529 -30.6666870117 -54 -61.3333129883 -52 -58.6666564941 -26 -74.6666870117 0 -90.6666564941 0 -96.6666717529 23.3333435059 -79.6666564941 46.6666564941 -62.6666717529 51.3333282471 -70 72.3333435059 -35 93.3333282471 0 127.333343506 0 93.3333435059 75.3333435059 59.3333129883 150.666656494 rrcurveto
          -275 358 rmoveto
          64.6666564941 0 51.3333435059 -26.3333129883 38 -52.6666870117 34 -46.6666564941 17 -57 0 -67.3333435059 0 -64.6666564941 -18.3333129883 -57.6666717529 -36.6666870117 -50.6666717529 -40.6666564941 -55.3333435059 -51.6666870117 -27.6666564941 -62.6666564941 0 -62.6666564941 0 -50.6666717529 28 -38.6666717529 56 -34 49.3333282471 -17 57.3333282471 0 65.3333435059 rrcurveto
          0 67.3333435059 17.3333282471 57.3333129883 34.6666717529 47.3333435059 38.6666717529 52 51.9999847412 26 65.3333435059 0 rrcurveto
          endchar
        </CharString>
        <CharString name="Oacute">
          103 324 -16 rmoveto
          -79 callsubr
          5 588 rmoveto
          -101 callsubr
          -83 115 rmoveto
          -89 callsubr
          endchar
        </CharString>
        <CharString name="Ocircumflex">
          103 324 -16 rmoveto
          -79 callsubr
          5 588 rmoveto
          -101 callsubr
          4 187 rmoveto
          -84 callsubr
          endchar
        </CharString>
        <CharString name="Odieresis">
          107 324 -16 rmoveto
          -79 callsubr
          5 588 rmoveto
          -101 callsubr
          110 124 rmoveto
          -92 callsubr
          -210 hmoveto
          -82 callsubr
          endchar
        </CharString>
        <CharString name="Ograve">
          103 324 -16 rmoveto
          -79 callsubr
          5 588 rmoveto
          -101 callsubr
          79 114 rmoveto
          -99 callsubr
          endchar
        </CharString>
        <CharString name="Omega">
          105 405 130 rmoveto
          48.6666564941 5.33332824707 42.6666870117 27.6666717529 36.6666564941 50 35.3333129883 47.3333435059 17.6666870117 48.6666564941 0 50 0 185.333312988 -89 92.6666870117 -178 0 -90.6666717529 0 -69.1666564941 -23.6666870117 -47.6666717529 -47.3333129883 -47.6666717529 -47.3333129883 -23.8333282471 -69.0000305176 0 -90.6666564941 0 -50.6666564941 17 -48.6666870117 34 -46.6666564941 rrcurveto
          35.3333435059 -48.6666717529 41.9999847412 -28 48.6666717529 -7.33332824707 rrcurveto
          -64 -155 -65 207 176 vlineto
          -47.3333282471 0 -37.3333435059 21 -27.3333282471 42 -22 34 -11 36.6666564941 0 39.3333435059 0 67.3333435059 15 54.3333129883 30 41.3333435059 34.6666717529 46 49.6666564941 23 64.6666717529 0 64.6666564941 0 48 -23.3333129883 31.3333435059 -46.6666870117 26.6666564941 -40 13.3333435059 -54 0 -68 rrcurveto
          0 -36.6666564941 -13 -36.6666870117 -26 -36.6666564941 -30 -42 -35.3333435059 -21 -40.6666564941 0 rrcurveto
          -176 206 65 -158 vlineto
          endchar
        </CharString>
        <CharString name="Oslash">
          103 217 93 rmoveto
          -33.3333282471 23.3333435059 -25.6666717529 32.3333282471 -18 41.3333282471 -16.6666564941 38 -8.33334350586 41 0 44 0 68 17.3333282471 58.6666564941 34.6666717529 49.3333435059 39.3333282471 55.3333129883 52.3333282471 27.6666870117 65.3333435059 0 14.6666564941 0 12.6666870117 -1.33331298828 10.6666564941 -2.66668701172 rrcurveto
          75 -35 rmoveto
          62.6666564941 -50 31.3333435059 -73.6666564941 0 -97.3333435059 0 -64.6666717529 -18.6666870117 -57 -37.3333129883 -49.3333282471 -40.6666564941 -53.3333435059 -52 -26.6666564941 -63.3333435059 0 -5.33334350586 0 -8.66665649414 0.66667175293 -12 1.33332824707 rrcurveto
          104 619 rmoveto
          -13 -42 rlineto
          -18 4 -19.3333435059 2 -20.6666564941 0 -89.3333282471 0 -72 -32.3333129883 -54.6666717529 -64.6666870117 -52 -60.6666564941 -26 -75.6666870117 0 -90.6666564941 0 -154 53.3333435059 -103.333343506 106.666656494 -52.6666564941 rrcurveto
          -17 -57 78 -24 17 57 rlineto
          14 -2.66667175293 16.3333435059 -1.33332824707 18.6666564941 0 93.3333435059 0 73.3333129883 33.6666717529 53.3333435059 67.3333282471 49.3333129883 62 24.6666870117 79 0 96 0 61.3333435059 -12 55.6666564941 -24 50 -26.6666870117 54 -38.6666564941 41 -50.6666564941 28 rrcurveto
          14 46 rlineto
          endchar
        </CharString>
        <CharString name="Otilde">
          107 324 -16 rmoveto
          -79 callsubr
          5 588 rmoveto
          -101 callsubr
          56 97 rmoveto
          -80 callsubr
          endchar
        </CharString>
        <CharString name="P">
          -82 244 264 rmoveto
          52.6666564941 0 43.6666870117 19.1666564941 34.6666564941 38.3333435059 34.6666564941 38.3333435059 17.3333435059 45.8333129883 0 53.3333435059 0 54.6666870117 -15.6666564941 44.8333129883 -31.3333435059 35 -31.3333435059 35 -42.6666564941 16.8333129883 -54 -1.33331298828 rrcurveto
          -189 -4 0 -640 89 0 0 268 rlineto
          36 -2.66665649414 30.6666717529 -1.33334350586 25.3333282471 0 rrcurveto
          -4 321 rmoveto
          66 1.33331298828 33 -43 0 -87.3333129883 0 -34 -9.66665649414 -28.6666564941 -19.3333435059 -23.3333435059 -20 -25.3333435059 -26.6666564941 -13 -33.3333435059 -0.666656494141 rrcurveto
          -78 -1 0 253 rlineto
          endchar
        </CharString>
        <CharString name="Q">
          117 607 -70 rmoveto
          53 59 -117 103 rlineto
          23.3333129883 23.3333435059 18 36.6666564941 12.6666870117 50 10 40.6666717529 5 41.3333282471 0 42 0 90.6666564941 -24.6666870117 75 -49.3333129883 59.3333435059 -52.6666564941 63.3333129883 -70.6666870117 31.6666870117 -88.6666564941 0 -89.3333282471 0 -72.3333435059 -32 -55.3333282471 -64 -52 -60 -26 -75.6666564941 0 -91.3333435059 rrcurveto
          0 -95.3333282471 23.6666717529 -78.6666717529 47.3333282471 -62 51.3333282471 -68.6666717529 72 -34.3333282471 92.6666717529 0 61.3333435059 0 55.6666564941 17.6666717529 50 35.3333282471 rrcurveto
          -162 534 rmoveto
          65.3333435059 0 52 -27 38.6666564941 -54 34 -48 17 -58 0 -68 0 -62.6666717529 -17.3333129883 -55.6666564941 -34.6666870117 -48.6666717529 rrcurveto
          -77 68 -54 -58 75 -66 rlineto
          -34.6666564941 -21.3333435059 -35.6666870117 -10.6666564941 -36.6666564941 0 -61.3333282471 0 -50 28 -38.6666717529 56 -34 49.3333282471 -17 56.6666717529 0 64 0 67.3333435059 17.6666717529 58 35.3333282471 48.6666564941 38.6666717529 54.6666870117 51.9999847412 27.3333129883 65.3333435059 0 rrcurveto
          endchar
        </CharString>
        <CharString name="R">
          -11 414 -10 rmoveto
          111 20 rlineto
          -61.3333435059 60 -44 47.3333435059 -26.6666564941 34.6666564941 rrcurveto
          -108 144 rlineto
          46.6666564941 9.33334350586 37 19.3333129883 27.3333435059 29.3333435059 27.3333435059 29.3333435059 14 37.6666564941 0.666656494141 46 1.33334350586 116.666687012 -57.6666870117 59 -116.666656494 1.33331298828 rrcurveto
          -202 -3 0 -641 89 0 0 289 44 2 rlineto
          36 -59.3333282471 33.3333435059 -51.3333435059 30.6666564941 -43.3333282471 44.6666564941 -64 39.3333435059 -49 34 -34 rrcurveto
          -175 593 rmoveto
          78 2 39 -35 0 -72 0 -46 -11.1666564941 -31.8333435059 -22.3333435059 -17.6666564941 -22.3333435059 -17.6666564941 -35.1666564941 -8.83334350586 -48 0 rrcurveto
          -65 225 hlineto
          endchar
        </CharString>
        <CharString name="S">
          -49 239 -10 rmoveto
          -100 callsubr
          endchar
        </CharString>
        <CharString name="Scaron">
          -49 239 -10 rmoveto
          -100 callsubr
          70 777 rmoveto
          -95 callsubr
          endchar
        </CharString>
        <CharString name="T">
          -5 318 572 rmoveto
          186 67 -473 -67 198 -572 89 hlineto
          endchar
        </CharString>
        <CharString name="Thorn">
          2 279 145 rmoveto
          74.6666564941 0 56 26.6666717529 37.3333435059 53.3333282471 32 46 15.6666564941 62.3333435059 -0.666656494141 78.6666564941 -0.666656494141 71.3333435059 -18 60.3333435059 -35.3333435059 49.3333129883 -40 55.3333129883 -54.3333435059 27.6666870117 -68.6666564941 0 -56.6666717529 0 -44.3333282471 -24.3333129883 -32 -48.6666870117 rrcurveto
          97 -84 -808 84 297 vlineto
          43.3333282471 -29.3333282471 45 -14.6666717529 46.6666717529 0 rrcurveto
          -21 454 rmoveto
          51.3333435059 0 39 -21.3333129883 26.6666564941 -42.6666870117 22 -36 11 -45 0 -54 0 -51.3333435059 -9.33334350586 -42 -18.6666564941 -32.6666564941 -22.6666564941 -40.6666717529 -35.3333435059 -20.3333282471 -48 0 -61.3333282471 0 -43.3333435059 20 -25.3333282471 40 rrcurveto
          252 vlineto
          23.3333282471 49.3333129883 38 24.6666870117 52.6666717529 0 rrcurveto
          endchar
        </CharString>
        <CharString name="U">
          30 508 230 rmoveto
          410 -90 -410 vlineto
          0 -50 -10.6666564941 -40 -21.3333435059 -30 -24 -34.6666564941 -35.6666564941 -17.3333435059 -47.3333435059 0 rrcurveto
          -84.6666717529 -42.3333282471 57.3333435059 114.666656494 hvcurveto
          410 -89 -410 vlineto
          0 -72.6666717529 17.3333435059 -58.3333282471 34.6666564941 -44 37.3333282471 -48 54 -24 70.6666717529 0 72.6666564941 0 56.6666870117 22.6666717529 40.6666564941 45.3333282471 40.6666564941 45.3333435059 20.3333435059 59.6666564941 0 74 rrcurveto
          endchar
        </CharString>
        <CharString name="Uacute">
          30 513 230 rmoveto
          -78 callsubr
          -309 457 rmoveto
          -89 callsubr
          endchar
        </CharString>
        <CharString name="Ucircumflex">
          30 513 230 rmoveto
          -78 callsubr
          -230 529 rmoveto
          -84 callsubr
          endchar
        </CharString>
        <CharString name="Udieresis">
          -20 513 230 rmoveto
          -78 callsubr
          -127 466 rmoveto
          -92 callsubr
          -209 hmoveto
          -81 callsubr
          endchar
        </CharString>
        <CharString name="Ugrave">
          30 513 230 rmoveto
          -78 callsubr
          -147 456 rmoveto
          -99 callsubr
          endchar
        </CharString>
        <CharString name="V">
          7 311 -10 rmoveto
          207 640 -74 23 -159 -522 -159 522 -85 -23 205 -640 rlineto
          endchar
        </CharString>
        <CharString name="W">
          248 591 -6 rmoveto
          178 632 -68 19 -136 -498 -131 488 -64 0 -135 -489 -132 499 -87 -19 176 -632 63 0 142 465 142 -465 rlineto
          endchar
        </CharString>
        <CharString name="X">
          11 421 -15 rmoveto
          95 20 -204 329 165 292 -75 20 -129 -244 -134 243 -91 -19 174 -309 -186 -312 91 -20 139 278 rlineto
          endchar
        </CharString>
        <CharString name="Y">
          -38 296 272 rmoveto
          177 355 -76 23 -143 -297 -145 297 -80 -23 177 -355 0 -272 90 0 rlineto
          endchar
        </CharString>
        <CharString name="Yacute">
          -38 301 272 rmoveto
          -93 callsubr
          -108 627 rmoveto
          -85 callsubr
          endchar
        </CharString>
        <CharString name="Ydieresis">
          -59 301 272 rmoveto
          -93 callsubr
          75 696 rmoveto
          -92 callsubr
          -210 hmoveto
          14.6666717529 0 12 5 9.33332824707 10 9.33332824707 10 4.66667175293 12.3333129883 0 14.6666870117 0 14 -4.83332824707 12.1666870117 -9.66667175293 10.3333129883 -9.66667175293 10.3333129883 -11.8333282471 5.16668701172 -14 0 -14.6666717529 0 -12 -5 -9.33332824707 -10 -9.33334350586 -10 -4.66665649414 -12.3333129883 0 -14.6666870117 rrcurveto
          0 -14.6666870117 4.66665649414 -12.3333129883 9.33334350586 -10 9.33332824707 -10 12 -5 14.6666717529 0 rrcurveto
          endchar
        </CharString>
        <CharString name="Z">
          3 161 76 rmoveto
          320 491 -8 72 -393 0 0 -67 305 2 -322 -497 7 -77 408 0 0 76 rlineto
          endchar
        </CharString>
        <CharString name="Zcaron">
          3 166 76 rmoveto
          320 491 -8 72 -393 0 0 -67 306 2 -323 -497 8 -77 407 0 0 76 rlineto
          -154 681 rmoveto
          -95 callsubr
          endchar
        </CharString>
        <CharString name="a">
          -50 394 -11 rmoveto
          32.6666564941 0 27.3333435059 11.6666717529 22 23.3333282471 rrcurveto
          -16 52 rlineto
          -20.6666564941 -14.6666717529 -14 -7 -7.33334350586 0.66667175293 -10.6666564941 0 -7 6.66667175293 -3.33334350586 13.3333282471 rrcurveto
          282 vlineto
          0 46 -15.6666564941 37.3333435059 -31.3333435059 28.6666564941 -31.3333435059 28.6666564941 -38.6666564941 14.3333435059 -46 0 -24 0 -30.6666717529 -9 -37.3333282471 -18 -34 -16 -27.3333435059 -17.3333435059 -20.6666564941 -18.6666564941 rrcurveto
          41 -56 rlineto
          52 42.6666564941 44.3333282471 21.3333435059 36.6666717529 0 22.6666564941 0 19.8333435059 -7 17 -14 17 -14 8.5 -18 0 -22 rrcurveto
          -63 vlineto
          -49.3333435059 -4.66665649414 -35.9999847412 -5 -22.6666717529 -5.33334350586 -59.3333282471 -14 -40.3333282471 -14.6666564941 -21.3333435059 -15.3333435059 -32.6666717529 -24 -16.3333282471 -39 0 -54 0 -42 12.5 -34.3333282471 25 -26.6666717529 25 -26.6666717529 33.5 -13.3333282471 42 0 37.3333282471 0 33.3333435059 6.66667175293 29.3333282471 13.3333282471 rrcurveto
          14.6666564941 6.66667175293 17.3333435059 11 20 15.3333282471 14.6666564941 -32 21 -16 27.3333435059 0 rrcurveto
          -75 244 rmoveto
          -101 vlineto
          0 -26 -16.3333435059 -21.3333435059 -32.6666564941 -16.6666564941 -27.3333282471 -14 -26.6666717529 -7 -26 0 -24 0 -18.8333282471 7.16667175293 -13.6666717529 14.3333282471 -13.6666564941 14.3333435059 -6.83334350586 19.1666564941 0 24 0.666656494141 44 24.3333435059 28.3333282471 48 12.6666717529 20 5.33332824707 19 4.33334350586 18 3.33332824707 rrcurveto
          31.3333435059 6 25.3333129883 3 19.3333435059 0 rrcurveto
          endchar
        </CharString>
        <CharString name="aacute">
          -50 399 -11 rmoveto
          -77 callsubr
          -75 244 rmoveto
          -76 callsubr
          -141 324 rmoveto
          -89 callsubr
          endchar
        </CharString>
        <CharString name="acircumflex">
          -50 399 -11 rmoveto
          -77 callsubr
          -75 244 rmoveto
          -76 callsubr
          -72 386 rmoveto
          -84 callsubr
          endchar
        </CharString>
        <CharString name="acute">
          -212 104 557 rmoveto
          -89 callsubr
          endchar
        </CharString>
        <CharString name="adieresis">
          -50 399 -11 rmoveto
          -77 callsubr
          -75 244 rmoveto
          -76 callsubr
          31 313 rmoveto
          -92 callsubr
          -210 hmoveto
          14.6666717529 0 12 5 9.33332824707 10 9.33332824707 10 4.66667175293 12.3333129883 0 14.6666870117 0 14 -4.83332824707 12.1666870117 -9.66667175293 10.3333129883 -9.66667175293 10.3333129883 -11.8333282471 5.16668701172 -14 0 -14.6666717529 0 -11.9999847412 -5 -9.33334350586 -10 -9.33334350586 -10 -4.66665649414 -12.3333129883 0 -14.6666870117 rrcurveto
          0 -14.6666870117 4.66665649414 -12.3333129883 9.33334350586 -10 9.33334350586 -10 11.9999847412 -5 14.6666717529 0 rrcurveto
          endchar
        </CharString>
        <CharString name="ae">
          234 658 332 rmoveto
          -32 -254 vlineto
          12.6666564941 52 14 35 15.3333435059 18 20.6666564941 24 34.6666870117 12 48.6666564941 0 rrcurveto
          72 36 -36.3333435059 -72.6666564941 hvcurveto
          -327 -295 rmoveto
          39 36 rlineto
          38.6666564941 -56.6666717529 61 -28.3333282471 83.3333435059 0 64.6666870117 0 59.6666259766 25.3333282471 54.6666870117 50.6666717529 rrcurveto
          -40 56 rlineto
          -17.3333129883 -16 -20.3333740234 -14 -23.3333129883 -12 -27.3333129883 -14.6666717529 -23.3333740234 -7.33332824707 -19.3333129883 0 -27.3333129883 0 -26.3333435059 5.66667175293 -25.3333435059 11.3333282471 -28.6666564941 12.6666564941 -20 17.3333435059 -11.3333435059 22 -16.6666564941 31.3333282471 -8.33334350586 37.3333435059 0 43.3333282471 rrcurveto
          340 61 hlineto
          0 55.3333435059 -15.6666870117 47.6666564941 -31.3333129883 40 -34.6666870117 44 -44 22 -53.3333129883 0 -75.3333435059 0 -59.3333129883 -26 -43.3333435059 -52 -28.6666564941 55.3333435059 -48.6666870117 27.6666564941 -68.6666564941 0 -22.6666717529 0 -30.6666564941 -9 -38.6666717529 -18 -35.3333435059 -17.3333435059 -27.3333129883 -17.3333129883 -19.3333435059 -17.3333435059 rrcurveto
          41 -56 rlineto
          52 42.6666564941 44.3333282471 21.3333435059 36.6666717529 0 22.6666564941 0 19.8333435059 -7 17 -14 17 -14 8.5 -18 0 -22 rrcurveto
          -60 vlineto
          -34.6666564941 -3.33334350586 -36.0000152588 -6 -37.3333282471 -8.66665649414 -60 -14 -40.3333435059 -14.6666564941 -20.6666564941 -15.3333435059 -32.6666717529 -24 -16.3333282471 -39 0 -54 0 -42 12.5 -34.3333282471 25 -26.6666717529 25 -26.6666717529 33.5 -13.3333282471 42 0 37.3333282471 0 33.3333435059 6.66667175293 29.3333282471 13.3333282471 rrcurveto
          23.3333435059 14 17.3333129883 11 11.3333435059 8 rrcurveto
          -12 196 rmoveto
          -101 vlineto
          0 -26 -16.3333435059 -21.3333435059 -32.6666564941 -16.6666564941 -27.3333282471 -14 -26.6666717529 -7 -26 0 -51.3333282471 0 -25.6666717529 26.3333435059 0 52.6666564941 0 34 13.6666564941 24.3333282471 27.3333435059 14.6666717529 11.3333282471 6 27 7.33332824707 42.6666717529 8.66667175293 40.6666564941 8 28 4 15.3333435059 0 rrcurveto
          endchar
        </CharString>
        <CharString name="agrave">
          -50 399 -11 rmoveto
          -77 callsubr
          -75 244 rmoveto
          -76 callsubr
          21 323 rmoveto
          -99 callsubr
          endchar
        </CharString>
        <CharString name="ampersand">
          14 176 307 rmoveto
          30.6666717529 -50 52.3333282471 -63 74 -76 -30 -38 -37 -19 -44 0 -36 0 -29.6666717529 10.6666564941 -23.3333282471 21.3333435059 -23.3333435059 21.3333435059 -11.6666564941 28.3333282471 0 35.3333282471 0 57.3333282471 26 43.0000152588 52 28.6666564941 rrcurveto
          303 -303 rmoveto
          46 62 rlineto
          -44.6666564941 22 -31 21 -17.3333435059 20 14.6666564941 43.3333282471 7.33334350586 40 0 36.6666717529 0 18 -2.33334350586 24 -4.66665649414 30 rrcurveto
          -70 -6 rlineto
          6.66665649414 -26.6666564941 3.33334350586 -21 0 -15.3333435059 0 -13.3333282471 -4.66665649414 -23.3333435059 -9.33334350586 -33.3333282471 -34 34.6666717529 -43 53.3333282471 -52 72 22.6666564941 10.6666564941 29 5.33334350586 35.3333435059 0 rrcurveto
          -14 61 rlineto
          -38.6666564941 -1.33334350586 -37.0000152588 -8 -35.3333282471 -14.6666564941 -20 39.3333435059 -10 34.6666564941 0 30 0 51.3333129883 24.6666717529 25.6666870117 49.3333282471 0 43.3333435059 0 36.6666564941 -18.6666870117 30 -37.3333129883 rrcurveto
          47 48 rlineto
          -44 48 -50 24 -56 0 -44.6666717529 0 -37.8333282471 -14.8333129883 -31 -29.6666870117 -31 -29.6666870117 -15.5 -37.1666259766 0 -44.6666870117 0 -42 15 -41.6666564941 30 -41.3333435059 -35.3333435059 -19.3333435059 -28.3333129883 -26.6666564941 -21.3333435059 -34 -21.3333282471 -34 -10.6666717529 -36.6666717529 0 -39.3333282471 rrcurveto
          0 -56 20 -44.3333435059 40 -32.6666564941 36.6666564941 -30 47.3333435059 -15 58 0 56 0 52.3333435059 25 48.6666564941 50 37.3333435059 -32.6666717529 31.6666564941 -20.6666564941 26 -8.66667175293 rrcurveto
          endchar
        </CharString>
        <CharString name="apple">
          8 325 573 rmoveto
          71 -68 59 68 70 56 -70 67 -59 -67 -71 hlineto
          -291 -590 rmoveto
          71 -67 59 67 71 56 -71 68 -59 -68 -71 hlineto
          131 123 rmoveto
          -46 34 46 vlineto
          4 30 rmoveto
          -20 27 20 vlineto
          3 36 rmoveto
          -26 90 26 vlineto
          -128 96 rmoveto
          -83 29 83 vlineto
          167 71 rmoveto
          46 -35 -46 vlineto
          -3 -30 rmoveto
          20 -27 -20 vlineto
          -3 -36 rmoveto
          26 -90 -26 vlineto
          128 -96 rmoveto
          83 -29 -83 vlineto
          endchar
        </CharString>
        <CharString name="approxequal">
          -5 344 282 rmoveto
          14 0 17.1666564941 4 20.3333435059 8 20.3333435059 8 14.8333129883 8.66665649414 9.33334350586 9.33334350586 rrcurveto
          -27 62 rlineto
          -20 -22 -21.3333435059 -11 -22.6666564941 0 -8 0 -18.8333435059 8 -29.6666564941 16 -29.6666564941 16 -24.8333435059 8 -20 0 -18 0 -21 -5.66665649414 -24 -11.3333435059 -24 -11.3333435059 -18 -12.6666564941 -12 -14 rrcurveto
          24 -63 rlineto
          9.33332824707 14 13.3333435059 12.6666564941 17.3333282471 11.3333435059 17.3333282471 11.3333435059 16.3333435059 5.66665649414 15.3333282471 0 11.3333282471 0 20.8333435059 -8.66665649414 30.3333282471 -17.3333435059 30.3333435059 -17.3333435059 22.5 -8.66665649414 14.6666564941 0 rrcurveto
          -200 vmoveto
          14 0 17.1666564941 4 20.3333435059 8 20.3333435059 8 14.8333129883 8.66665649414 9.33334350586 9.33334350586 rrcurveto
          -27 62 rlineto
          -20 -22 -21.3333435059 -11 -22.6666564941 0 -8 0 -18.8333435059 8 -29.6666564941 16 -29.6666564941 16 -24.8333435059 8 -20 0 -18 0 -21 -5.66667175293 -24 -11.3333282471 -24 -11.3333282471 -18 -12.6666717529 -12 -14 rrcurveto
          24 -63 rlineto
          10 14 14 12.6666564941 18 11.3333435059 18 11.3333282471 17 5.66667175293 16 0 11.3333282471 0 20.1666717529 -8.66665649414 29 -17.3333435059 29 -17.3333435059 21.8333435059 -8.66665649414 14.6666564941 0 rrcurveto
          endchar
        </CharString>
        <CharString name="aring">
          -50 399 -11 rmoveto
          -77 callsubr
          -75 244 rmoveto
          -76 callsubr
          -84 333 rmoveto
          26.6666564941 0 21.8333435059 8 17 16 17 16 8.5 21 0 26 0 26 -8.66665649414 20.8333129883 -17.3333435059 15.6666870117 -17.3333435059 15.6666870117 -21.6666564941 7.83331298828 -26 0 -26 0 -21.5 -8 -17 -16 -17 -16 -8.5 -20.6666870117 0 -25.3333129883 rrcurveto
          0 -26 8.5 -21 17 -16 17 -16 21.5 -8 26 0 rrcurveto
          130 vmoveto
          28.6666564941 14.3333435059 -14.3333129883 -28.6666870117 -29.3333129883 -14.3333435059 -14.6666870117 -28.6666564941 -28 -14 14.6666870117 29.3333129883 28.6666870117 14 14.3333129883 28 hvcurveto
          endchar
        </CharString>
        <CharString name="asciicircum">
          -5 267 592 rmoveto
          117 -139 42 52 -159 173 -157 -173 42 -52 rlineto
          endchar
        </CharString>
        <CharString name="asciitilde">
          -146 279 379 rmoveto
          24.6666564941 0 24.6666870117 12.3333435059 24.6666564941 24.6666564941 rrcurveto
          -18 70 rlineto
          -6 -6.66665649414 -5.33334350586 -5.66668701172 -4.66665649414 -4.66665649414 -10.6666564941 -13.3333435059 -10.6666870117 -6.66665649414 -10.6666564941 0 -10.6666564941 0 -11.6666870117 4.66665649414 -12.6666564941 9.33334350586 -31.3333282471 22.6666564941 -27.3333435059 11.3333435059 -23.3333282471 0 -33.3333282471 0 -29.0000152588 -14.6666564941 -24.6666564941 -29.3333435059 rrcurveto
          19 -72 rlineto
          24 35.3333435059 21.6666717529 17.6666564941 19.3333282471 0 11.3333282471 0 17.8333435059 -9.16665649414 24.3333282471 -18.3333435059 24.3333282471 -18.3333435059 19.5000152588 -9.16665649414 14.6666564941 0 rrcurveto
          endchar
        </CharString>
        <CharString name="asterisk">
          -266 219 475 rmoveto
          26 44 -78 51 77 50 -25 44 -66 -61 5 89 -47 1 4 -90 -68 61 -26 -44 80 -51 -81 -50 27 -44 66 60 -3 -89 rlineto
          47 0 -4 89 rlineto
          endchar
        </CharString>
        <CharString name="at">
          469 493 -232 rmoveto
          110.666687012 0 90.3333129883 14.3333282471 70 28.6666717529 86 34.6666717529 68 59.3333282471 50 84 rrcurveto
          -67 43 rlineto
          -44.6666870117 -72 -58.3333129883 -51.6666564941 -72 -31.3333435059 -62 -26.6666717529 -77.6666870117 -13.3333282471 -93.3333129883 0 -108 0 -89.6666564941 40.3333435059 -71.3333435059 80.6666564941 -68 77.3333282471 -34 93.3333435059 0 109.333328247 0 108.666656494 38 92.3333435059 76 76 76 76 92.3333435059 38 108.666656494 0 rrcurveto
          108 0 85 -33 62 -66 62 -66 31 -87.3333435059 0 -108.666656494 0 -22 -6.5 -26.5 -13 -31 -13 -31 -14.1666870117 -23.8333282471 -15.3333129883 -16.6666717529 -10 -11.3333435059 -15.6666870117 -12 -21.3333129883 -12.6666564941 -24 -14.6666564941 -17.6666870117 -7.00001525879 -11.3333129883 0.66667175293 rrcurveto
          -8.66668701172 0.66667175293 -8.16662597656 3.66667175293 -7.66668701172 6.66665649414 -7.66668701172 6.66665649414 -4.16662597656 7.66668701172 -0.666687011719 8.66665649414 rrcurveto
          64 408 -73 0 -3 -41 rlineto
          -10.6666870117 16 -18 13 -25.3333129883 10 -22 8 -22.3333129883 4 -22.6666870117 0 -74.6666564941 0 -63 -35 -51.3333435059 -70 -46 -63.3333435059 -23 -69 0 -74.6666564941 0 -140.666671753 51 -70.3333282471 102 0 62 0 56 32.6666717529 50 65.3333282471 rrcurveto
          -2.66668701172 -26.6666717529 5.33337402344 -22.6666564941 13.3333129883 -18.6666717529 14.6666870117 -20.6666717529 20.3333129883 -10.3333282471 26 0 30 0 34 9.66667175293 38 19.3333282471 36 18 28.6666870117 21 21.3333129883 24 48.6666870117 54.6666717529 24.3333129883 62.6666564941 0 70.6666717529 0 128 -37.6666870117 103.666656494 -75.3333129883 79.3333435059 rrcurveto
          -75.3333129883 79.3333129883 -101.333374023 39.6666870117 -127.333312988 0 -128 0 -108.666656494 -44.6666870117 -89.3333435059 -89.3333129883 -89.3333435059 -89.3333435059 -44.6666564941 -108.666656494 0 -128 0 -128 41 -109.666671753 82 -91.3333282471 84.6666564941 -94 105.666687012 -47 126.666656494 0 rrcurveto
          145 630 rmoveto
          -35 -193 rlineto
          -5.33331298828 -30 -18 -31 -30.6666870117 -32 -30.6666870117 -32 -29.9999694824 -16 -29.3333435059 0 -46.6666564941 0 -31 18.6666564941 -15.3333435059 37.3333435059 -8 19.3333282471 -4 31.6666717529 0 44 0 84.6666564941 25.3333435059 64 50.6666564941 43.3333435059 34 28.6666564941 32 14.3333435059 30 0 rrcurveto
          21.3333129883 0 21 -4.33334350586 20.6666870117 -8.66665649414 24 -9.33334350586 16.3333129883 -13 8.66668701172 -16.6666564941 rrcurveto
          endchar
        </CharString>
        <CharString name="atilde">
          -50 399 -11 rmoveto
          -77 callsubr
          -75 244 rmoveto
          -76 callsubr
          -12 316 rmoveto
          9.33334350586 0 13.1666564941 3.83331298828 17 7.66668701172 17 7.66668701172 11.5 7.16662597656 6 6.66668701172 rrcurveto
          -26 60 rlineto
          -18 -16.6666870117 -16.6666564941 -8.33331298828 -15.3333435059 0 -11.3333435059 0 -21 11.5 -30.6666564941 23 -30.6666717529 23 -23.6666564941 11.1666870117 -16.6666717529 -0.666687011719 -16.6666717529 -0.666687011719 -17.8333282471 -5.16662597656 -19 -9.66668701172 -19 -9.66668701172 -14.1666564941 -11.5 -9.33334350586 -13.3333129883 rrcurveto
          26 -59 rlineto
          20.6666564941 28 23.3333435059 14 26 0 8 0 20.3333282471 -11.5 32.6666717529 -23 32.6666564941 -23 25 -11.5 17.3333435059 0 rrcurveto
          endchar
        </CharString>
        <CharString name="b">
          -26 272 -10 rmoveto
          72.6666564941 0 54.3333435059 27.6666717529 36 55.3333282471 30.6666564941 47.3333435059 15.3333435059 61.9999847412 0 76.6666717529 0 70 -17.6666564941 58.3333435059 -35.3333435059 46.6666564941 -38.6666564941 52 -53.3333435059 26 -68 0 -38 0 -41.6666717529 -21.3333435059 -45.3333282471 -42.6666564941 rrcurveto
          252 -79 -700 65 vlineto
          14 40 rlineto
          43.3333282471 -33.3333282471 43 -16.6666717529 42.6666717529 0 rrcurveto
          -5 453 rmoveto
          44 0 33 -21.3333435059 22 -42.6666564941 16.6666564941 -33.3333435059 8.33334350586 -41 0 -48.6666564941 0 -133.333343506 -42.3333435059 -66.6666564941 -84.6666564941 0 -21.3333282471 0 -22 4.66667175293 -22.6666717529 9.33332824707 -24.6666717529 9.33334350586 -18.3333282471 12.6666564941 -12 16 rrcurveto
          263 vlineto
          22 48 41.3333282471 24 60.6666717529 0 rrcurveto
          endchar
        </CharString>
        <CharString name="backslash">
          -156 308 -170 rmoveto
          81 17 -297 857 -80 -17 rlineto
          endchar
        </CharString>
        <CharString name="bar">
          -312 85 -220 rmoveto
          88 906 -88 hlineto
          endchar
        </CharString>
        <CharString name="braceleft">
          -5 398 748 rmoveto
          15 75 rlineto
          -32 7.33331298828 -24.6666564941 3.66668701172 -17.3333435059 0 -106 0 -53 -67 0 -134 0 -15.3333129883 1 -22.6666870117 2 -30 2 -30 1 -22.6666870117 0 -15.3333129883 0 -29.3333435059 -7.66667175293 -26.6666564941 -15.3333282471 -24 -8 -12.6666564941 -16.6666717529 -19.3333435059 -25.3333282471 -26 rrcurveto
          -1 -40 rlineto
          49.3333282471 -40 24.6666717529 -49 0 -58 0 -13.3333282471 -0.66667175293 -20.1666717529 -1.33332824707 -27 -1.33332824707 -27 -0.66667175293 -20.1666564941 0 -13.3333435059 0 -78 5 -53.6666564941 10 -29.3333435059 18.6666717529 -54.6666717529 40.6666717529 -29 62.6666564941 -3.33332824707 21.3333435059 -1.33332824707 30.6666564941 5.66665649414 40 12.6666717529 rrcurveto
          -20 75 rlineto
          -16.6666564941 -14 -23 -7 -29.3333435059 0 -24 0 -15.3333435059 9.66665649414 -6.66665649414 19.3333435059 -3.33334350586 10 -1.66665649414 24.6666717529 0 39.3333282471 0 18 1.33334350586 27 2.66665649414 36 2.66665649414 36 1.33334350586 27 0 18 0 33.3333282471 -8.66665649414 34.1666717529 -17.3333435059 35 rrcurveto
          -17.3333282471 35 -22 27.1666564941 -26.6666717529 19.3333435059 rrcurveto
          25 vlineto
          54.6666717529 49.3333435059 27.3333282471 48.6666564941 0 48 0 14.6666564941 -0.833343505859 21.8333435059 -1.66665649414 29 -1.66665649414 29 -0.833343505859 21.8333129883 0 14.6666870117 0 58.6666870117 6 38.3333129883 12 18 9.33334350586 14 19.6666564941 7 30 0 10.6666564941 0 19 -4.33331298828 27.3333435059 -8.66668701172 rrcurveto
          endchar
        </CharString>
        <CharString name="braceright">
          -5 357 172 rmoveto
          0 58 24.6666564941 49 49.3333435059 40 rrcurveto
          -1 40 rlineto
          -25.3333435059 26 -16.6666564941 19.3333435059 -8 12.6666564941 -15.3333435059 24 -7.66665649414 26.6666564941 0 29.3333435059 0 15.3333129883 1 22.6666870117 2 30 2 30 1 22.6666870117 0 15.3333129883 0 134 -53 67 -106 0 -17.3333282471 0 -24.6666717529 -3.66668701172 -32 -7.33331298828 rrcurveto
          15 -75 rlineto
          27.3333282471 8.66668701172 19 4.33331298828 10.6666717529 0 30 0 19.6666717529 -7 9.33332824707 -14 12 -18 6 -38.3333129883 0 -58.6666870117 0 -14.6666870117 -0.833343505859 -21.8333129883 -1.66665649414 -29 -1.66665649414 -29 -0.833343505859 -21.8333435059 0 -14.6666564941 0 -48 27.3333435059 -48.6666564941 54.6666564941 -49.3333435059 rrcurveto
          -25 vlineto
          -26.6666564941 -19.3333435059 -22 -27.1666564941 -17.3333435059 -35 -17.3333435059 -35 -8.66665649414 -34.1666717529 0 -33.3333282471 0 -18 1.33334350586 -27 2.66665649414 -36 2.66665649414 -36 1.33334350586 -27 0 -18 rrcurveto
          -41 vlineto
          -41.3333435059 -17 -20.6666564941 -34 vhcurveto
          -29.3333282471 0 -23 7 -16.6666717529 14 rrcurveto
          -20 -75 rlineto
          41.3333282471 -12 30.6666717529 -5.66667175293 20 0.66667175293 60.6666564941 2.66667175293 40 28 19.3333435059 53.3333282471 11.3333435059 31.3333435059 5.66665649414 54.6666564941 0 78 0 13.3333435059 -0.666656494141 20.1666564941 -1.33334350586 27 -1.33334350586 27 -0.666656494141 20.1666717529 0 13.3333282471 rrcurveto
          endchar
        </CharString>
        <CharString name="bracketleft">
          -272 56 -114 rmoveto
          163 70 -81 733 71 51 -153 hlineto
          endchar
        </CharString>
        <CharString name="bracketright">
          -275 50 -114 rmoveto
          160 854 -151 -51 72 -733 -81 hlineto
          endchar
        </CharString>
        <CharString name="breve">
          -196 171 538 rmoveto
          32.6666717529 0 28 9.5 23.3333282471 19 23.3333435059 19 16 25.5 8.66665649414 32 rrcurveto
          -48 7 rlineto
          -17.3333282471 -42 -28.3333435059 -21 -39.3333282471 0 -42.6666564941 0 -30 21 -17.3333435059 42 rrcurveto
          -49 -7 rlineto
          10 -32 17.5 -25.5 25 -19 25 -19 29.1666717529 -9.5 33.3333282471 0 rrcurveto
          endchar
        </CharString>
        <CharString name="brokenbar">
          -359 54 -18 rmoveto
          77 274 -77 hlineto
          126 vmoveto
          77 274 -77 hlineto
          endchar
        </CharString>
        <CharString name="bullet">
          -259 140 190 rmoveto
          26.6666717529 0 21.8333282471 10.1666717529 17 20.3333282471 17 20.3333282471 8.5 23.5000152588 0 26.6666564941 0 26.6666564941 -8.5 23.3333435059 -17 20 -17 20 -21.8333282471 10 -26.6666717529 0 -26.6666564941 0 -22 -9.83334350586 -17.3333435059 -19.6666564941 -17.3333282471 -19.6666564941 -8.66667175293 -23.5 0 -27.3333435059 rrcurveto
          0 -27.3333435059 8.5 -23.6666564941 17 -20 17 -20 22.1666564941 -10 27.3333435059 0 rrcurveto
          endchar
        </CharString>
        <CharString name="c">
          -62 269 -12 rmoveto
          66.6666564941 0 57.6666870117 24 48.6666564941 48 rrcurveto
          -39 52 rlineto
          -41.3333435059 -36.6666564941 -44.6666564941 -18.3333435059 -48 0 -46.6666717529 0 -37 19 -27.3333282471 38 -24 34 -12 41.3333282471 0 48.6666717529 0 52 10 44.3333435059 20 36.6666564941 24.6666717529 45.3333435059 36 22.6666564941 47.3333282471 0 39.3333435059 0 42 -17 44.6666564941 -34 rrcurveto
          42 66 rlineto
          -46 34.6666564941 -52.3333435059 17.6666870117 -58.6666564941 0.666656494141 -74 0.666656494141 -58 -26 -42 -52.6666564941 -38.6666717529 -48 -19.3333282471 -62.3333435059 0 -76.6666564941 0 -58 13 -51 26 -44 40 -67.3333282471 63.6666717529 -33.6666717529 87.3333282471 0 rrcurveto
          endchar
        </CharString>
        <CharString name="caron">
          -204 178 617 rmoveto
          -95 callsubr
          endchar
        </CharString>
        <CharString name="ccedilla">
          -58 295 -219 rmoveto
          27.3333435059 0 23 7.83332824707 18.6666564941 15.6666717529 18.6666564941 15.6666717529 9.33334350586 21.1666564941 0 26.6666717529 0 25.3333435059 -8.83334350586 21.1666564941 -17.6666564941 17 -17.6666564941 17 -21.5 8.5 -25.3333435059 0 -10.6666564941 0 -8.33334350586 -1.33332824707 -6 -2.66667175293 rrcurveto
          3 35 rlineto
          64 1.33332824707 56 24 48 46.6666717529 rrcurveto
          -39 52 rlineto
          -41.3333435059 -36.6666564941 -44.6666564941 -18.3333435059 -48 0 -46.6666717529 0 -37 19 -27.3333282471 38 -24.6666717529 34 -11.9999847412 41.3333282471 0.666656494141 48.6666717529 0.666656494141 52.6666564941 10.0000152588 44.3333435059 19.3333282471 36 24.6666717529 45.3333435059 36.3333282471 22.6666564941 48 0 39.3333435059 0 41.6666564941 -17 44 -34 rrcurveto
          42 66 rlineto
          -46 34.6666564941 -52.3333435059 17.6666870117 -58.6666564941 0.666656494141 -74 0.666656494141 -58 -26 -42 -52.6666564941 -38.6666717529 -48.6666564941 -19.3333282471 -62.3333435059 0 -76 0 -50 10.3333282471 -46 20.6666717529 -42 30.6666564941 -62 49.0000152588 -37 67.3333282471 -12 rrcurveto
          -5 -83 47 -21 rlineto
          13.3333435059 10 11.3333129883 5 9.33334350586 0 rrcurveto
          22.6666564941 11.3333435059 -13 -26 -22.6666717529 -12 -11.3333282471 -24 hvcurveto
          -14.6666564941 0 -16.6666870117 10.6666717529 -18.6666564941 21.3333282471 rrcurveto
          -37 -34 rlineto
          15.3333282471 -32 28.6666717529 -16 42 0 rrcurveto
          endchar
        </CharString>
        <CharString name="cedilla">
          -336 101 -219 rmoveto
          27.3333282471 0 22.8333435059 7.83332824707 18.3333282471 15.6666717529 18.3333282471 15.6666717529 9.16667175293 21.1666564941 0 26.6666717529 0 26 -8.5 21.3333435059 -17 16.6666564941 -17 16.6666717529 -21.5 8.33332824707 -26 0 -10.6666564941 0 -8.33334350586 -1.33332824707 -6 -2.66667175293 rrcurveto
          4 52 -58 -1 -5 -94 46 -21 rlineto
          14 10 11.6666564941 5 9.33334350586 0 rrcurveto
          22.6666564941 11.3333435059 -13 -26 -22.6666717529 -12 -11.3333282471 -24 hvcurveto
          -14 0 -17 10.6666717529 -20 21.3333282471 rrcurveto
          -36 -34 rlineto
          14 -32 28.6666717529 -16 43.3333282471 0 rrcurveto
          endchar
        </CharString>
        <CharString name="cent">
          -62 225 -10 rmoveto
          -79 89 80 vlineto
          47.3333435059 8 43 23 38.6666564941 38 rrcurveto
          -40 54 rlineto
          -38.6666564941 -35.3333435059 -44.6666870117 -17.6666564941 -50.6666564941 0 -46.6666717529 0 -36.6666564941 18.3333435059 -26.6666717529 36.6666564941 -24 32.6666717529 -12 40.6666564941 0 48.6666717529 0 52 9.66667175293 43.6666564941 19.3333282471 35.3333435059 24 44 36 22 48 0 42 0 42 -16.3333435059 42 -32.6666564941 rrcurveto
          43 68 rlineto
          -34.6666564941 26.6666564941 -38.3333435059 17 -42 7.33334350586 rrcurveto
          85 -89 -86 vlineto
          -62.6666717529 -10.6666564941 -47.6666717529 -31 -32.6666564941 -51.3333435059 -29.3333282471 -45.3333435059 -14.6666717529 -56.3333129883 0 -67.3333435059 0 -52 10.6666717529 -47 21.3333282471 -42 32 -63.3333282471 51.6666717529 -37 71.3333282471 -10.6666717529 rrcurveto
          endchar
        </CharString>
        <CharString name="circumflex">
          -204 173 619 rmoveto
          -84 callsubr
          endchar
        </CharString>
        <CharString name="colon">
          -297 133 360 rmoveto
          19.3333282471 0 16 7.33334350586 12.6666717529 14.6666564941 12.6666717529 14.6666564941 6.33332824707 17 0 19.3333435059 0 19.3333435059 -6.33332824707 17 -12.6666717529 14.6666564941 -12.6666717529 14.6666564941 -16 7.33334350586 -19.3333282471 0 -18.6666564941 0 -15.8333435059 -7.33334350586 -13 -14.6666564941 -13 -14.6666564941 -6.5 -17 0 -19.3333435059 rrcurveto
          0 -19.3333435059 6.5 -17 13 -14.6666564941 13 -14.6666564941 15.8333435059 -7.33334350586 18.6666564941 0 rrcurveto
          -369 vmoveto
          19.3333282471 0 16 7.33332824707 12.6666717529 14.6666717529 12.6666717529 14.6666717529 6.33332824707 17 0 19.3333282471 0 19.3333435059 -6.33332824707 17 -12.6666717529 14.6666564941 -12.6666717529 14.6666717529 -16 7.33332824707 -19.3333282471 0 -18.6666564941 0 -15.8333435059 -7.33332824707 -13 -14.6666717529 -13 -14.6666564941 -6.5 -17 0 -19.3333435059 rrcurveto
          0 -19.3333282471 6.5 -17 13 -14.6666717529 13 -14.6666717529 15.8333435059 -7.33332824707 18.6666564941 0 rrcurveto
          endchar
        </CharString>
        <CharString name="comma">
          -287 65 -72 rmoveto
          -104 callsubr
          endchar
        </CharString>
        <CharString name="copyright">
          255 396 102 rmoveto
          38 0 42.3333435059 12.3333435059 46.6666564941 24.6666564941 rrcurveto
          -25 42 rlineto
          -32.6666564941 -18.6666717529 -34 -9.33332824707 -35.3333435059 0 -38 0 -30.3333435059 17.3333282471 -22.6666564941 34.6666717529 -20 30 -10 35 0 40 0 41.3333435059 9 36.3333129883 18 31.3333435059 23.3333435059 40.6666564941 33 20.3333435059 42.6666564941 0 23.3333435059 0 31.3333129883 -12 39.3333435059 -24 rrcurveto
          24 51 rlineto
          -41.3333435059 23.3333129883 -40.3333129883 11.6666870117 -39.3333435059 0 -56.6666564941 -0.666687011719 -45 -21.6666564941 -33.3333435059 -42.6666564941 -30.6666717529 -39.3333435059 -15.3333282471 -49 0 -58.6666564941 0 -60 14.3333282471 -50 28.6666717529 -40 32.6666564941 -44 45.3333435059 -22 58 0 rrcurveto
          -264 214 rmoveto
          0 74 25.8333282471 62.8333435059 51.6666717529 51.6666564941 51.6666564941 51.6666870117 62.8333435059 25.8333129883 74 0 74 0 62.8333129883 -25.8333129883 51.6666870117 -51.6666870117 51.6666870117 -51.6666564941 25.8333129883 -62.8333435059 0 -74 0 -74 -25.8333129883 -62.8333282471 -51.6666870117 -51.6666717529 -51.6666870117 -51.6666564941 -62.8333129883 -25.8333435059 -74 0 rrcurveto
          -74 0 -62.8333435059 25.8333435059 -51.6666564941 51.6666564941 -51.6666717529 51.6666717529 -25.8333282471 62.8333282471 0 74 rrcurveto
          -65 hmoveto
          -94 callsubr
          endchar
        </CharString>
        <CharString name="currency">
          -52 404 360 rmoveto
          75 -178 133 196 72 -285 -205 -100 vlineto
          1 -74 99 0 0 -46 -100 0 1 -75 99 0 0 -240 282 0 0 77 -193 -1 0 164 178 0 0 75 -178 0 0 45 rlineto
          endchar
        </CharString>
        <CharString name="d">
          -30 448 hmoveto
          697 -78 -243 vlineto
          -32 38.6666564941 -39.3333435059 19.3333435059 -46.6666564941 0 -71.3333282471 0 -55.0000152588 -28 -38.6666564941 -56 -33.3333282471 -48.6666564941 -16.6666717529 -61.6666870117 0 -74.6666564941 0 -65.3333282471 15.6666717529 -57.0000152588 31.3333282471 -48.6666564941 36 -56.6666717529 49 -28.3333282471 62 0 38.6666564941 0 46.3333435059 18.3333282471 54 36.6666717529 rrcurveto
          12 -42 rlineto
          -12 380 rmoveto
          -274 vlineto
          -34.6666564941 -30 -37.6666870117 -15 -40.6666564941 0 -46 0 -34.3333282471 22 -22.6666717529 44 -18.6666717529 34.6666717529 -9.33332824707 42.3333282471 0 50 0 50 8 41.3333435059 16 32.6666564941 20.6666717529 43.3333435059 32.6666564941 21.6666564941 44.6666717529 0 31.3333435059 0 23.5 -4.16665649414 15.6666564941 -8.33334350586 rrcurveto
          15.6666564941 -8.33334350586 17.1666870117 -16.8333129883 18.6666564941 -25.3333435059 rrcurveto
          endchar
        </CharString>
        <CharString name="dagger">
          -320 192 559 rmoveto
          34 -70 62 -39 -62 -60 -34 60 -226 39 226 vlineto
          endchar
        </CharString>
        <CharString name="daggerdbl">
          -320 183 397 rmoveto
          24 -62 128 62 24 -62 82 -37 -82 -60 -24 60 -128 -60 -24 vlineto
          60 -152 37 152 hlineto
          endchar
        </CharString>
        <CharString name="degree">
          -268 138 712 rmoveto
          -37.3333435059 0 -31.5 -12.3333129883 -25.6666564941 -24.6666870117 -25.6666717529 -24.6666870117 -12.8333282471 -31 0 -37.3333129883 0 -37.3333129883 12.8333282471 -31 25.6666717529 -24.6666870117 25.6666564941 -24.6666564941 31.5 -12.3333435059 37.3333435059 0 37.3333282471 0 31 12.3333435059 24.6666717529 24.6666564941 24.6666717529 24.6666870117 12.3333282471 31 0 37.3333129883 rrcurveto
          0 37.3333129883 -12.3333282471 31 -24.6666717529 24.6666870117 -24.6666717529 24.6666870117 -31 12.3333129883 -37.3333282471 0 rrcurveto
          -50 vmoveto
          22.6666717529 0 18.5 -7.66668701172 14.3333282471 -15.3333129883 14.3333282471 -15.3333129883 7.16667175293 -19 0 -22.6666870117 0 -22.6666870117 -7.16667175293 -19 -14.3333282471 -15.3333129883 -14.3333282471 -15.3333435059 -18.5 -7.66665649414 -22.6666717529 0 -23.3333435059 0 -19.1666564941 7.5 -15 15 -15 15 -7.5 19.1666870117 0 23.3333129883 rrcurveto
          0 23.3333129883 7.5 19.1666870117 15 15 15 15 19.1666564941 7.5 23.3333435059 0 rrcurveto
          endchar
        </CharString>
        <CharString name="dieresis">
          -235 255 546 rmoveto
          14.6666564941 0 12 5 9.33334350586 10 9.33334350586 10 4.66665649414 12.3333129883 0 14.6666870117 0 14 -4.83334350586 12.1666870117 -9.66665649414 10.3333129883 -9.66665649414 10.3333129883 -11.8333435059 5.16668701172 -14 0 -14.6666717529 0 -12 -5 -9.33332824707 -10 -9.33332824707 -10 -4.66667175293 -12.3333129883 0 -14.6666870117 rrcurveto
          0 -14.6666870117 4.66667175293 -12.3333129883 9.33332824707 -10 9.33332824707 -10 12 -5 14.6666717529 0 rrcurveto
          -210 hmoveto
          14.6666717529 0 11.9999847412 5 9.33334350586 10 9.33334350586 10 4.66665649414 12.3333129883 0 14.6666870117 0 14.6666870117 -4.66665649414 12.3333129883 -9.33334350586 10 -9.33334350586 10 -11.9999847412 5 -14.6666717529 0 -14.6666717529 0 -12 -5 -9.33332824707 -10 -9.33332824707 -10 -4.66667175293 -12.3333129883 0 -14.6666870117 rrcurveto
          0 -14.6666870117 4.66667175293 -12.3333129883 9.33332824707 -10 9.33332824707 -10 12 -5 14.6666717529 0 rrcurveto
          endchar
        </CharString>
        <CharString name="divide">
          -45 264 397 rmoveto
          -72 callsubr
          -211 -122 rmoveto
          393 70 -393 hlineto
          211 -252 rmoveto
          -72 callsubr
          endchar
        </CharString>
        <CharString name="dollar">
          -5 314 -6 rmoveto
          95.3333435059 20 47.6666564941 58.3333435059 0 96.6666564941 0 59.3333282471 -16 43.3333282471 -32 27.3333435059 -20.6666564941 17.3333435059 -43.6666870117 20 -66.6666564941 22.6666564941 -61.3333282471 20.6666564941 -30.6666717529 28 0 35.3333435059 0 60.6666564941 29.6666717529 30.3333435059 59.3333282471 0 39.3333435059 0 38.3333129883 -15.6666870117 37.3333435059 -31.3333129883 rrcurveto
          44 58 rlineto
          -39.3333435059 32 -40 19.6666870117 -40.6666564941 7.33331298828 rrcurveto
          86 -89 -89 vlineto
          -38 -9.33331298828 -31 -18.3333740234 -24 -27.3333129883 -24 -27.3333129883 -12 -32.6666870117 0 -38 0 -50 14.6666564941 -39.3333435059 29.3333435059 -28.6666564941 20 -19.3333435059 32 -17.6666564941 44 -16 50.6666564941 -18 29.6666870117 -11.6666717529 8.66665649414 -5.33332824707 31.3333435059 -18 15.6666564941 -25 0 -32 rrcurveto
          0 -32 -10.1666564941 -25.1666564941 -20.3333435059 -18.3333435059 -20.3333435059 -18.3333435059 -26.1666564941 -9.16665649414 -32 0 -54.6666717529 0 -46.3333282471 22.3333435059 -38 44.6666564941 rrcurveto
          -47 -62 rlineto
          30.6666564941 -42.6666717529 49.3333435059 -26 68 -9.33332824707 rrcurveto
          -91 89 vlineto
          endchar
        </CharString>
        <CharString name="dotaccent">
          -304 128 528 rmoveto
          14 0 12.3333282471 4.5 10.6666717529 9 10.6666717529 9 5.33332824707 11.5 0 14 0 14 -5.16667175293 11.5 -10.3333282471 9 -10.3333282471 9 -12.5 4.5 -14.6666717529 0 -14.6666564941 0 -12.5 -4.5 -10.3333435059 -9 -10.3333435059 -9 -5.16665649414 -11.5 0 -14 rrcurveto
          0 -14 5.33334350586 -11.5 10.6666564941 -9 10.6666564941 -9 12.3333435059 -4.5 14 0 rrcurveto
          endchar
        </CharString>
        <CharString name="dotlessi">
          -308 71 hmoveto
          81 495 -81 hlineto
          endchar
        </CharString>
        <CharString name="e">
          -50 124 257 rmoveto
          330 61 hlineto
          0 55.3333435059 -16.3333435059 45.3333129883 -32.6666564941 35.3333435059 -32.6666564941 35.3333435059 -43.6666870117 17.6666564941 -54.6666564941 0 -74.6666717529 0 -58.3333282471 -25 -42 -50 -40 -47.3333435059 -20 -61.6666564941 0 -76 0 -61.3333282471 12.3333282471 -52.3333435059 24.6666717529 -43.3333282471 38.6666564941 -68 64.6666717529 -34 90.6666717529 0 rrcurveto
          65.3333435059 0 59.3333129883 25.3333282471 53.3333435059 50.6666717529 rrcurveto
          -40 56 rlineto
          -48 -42.6666564941 -43.6666564941 -21.3333435059 -39.3333435059 0 -24 0 -23 5 -22 10 -56 25.3333435059 -28 61.9999847412 0 98.6666717529 rrcurveto
          251 75 rmoveto
          -12 -244 vlineto
          10 41.3333435059 15.1666717529 30.5 20.3333282471 19.6666564941 20.3333282471 19.6666564941 30.1666717529 9.83334350586 40 0 rrcurveto
          72 36 -36.3333435059 -72.6666564941 hvcurveto
          endchar
        </CharString>
        <CharString name="eacute">
          -44 129 257 rmoveto
          -75 callsubr
          251 75 rmoveto
          -74 callsubr
          -197 225 rmoveto
          -89 callsubr
          endchar
        </CharString>
        <CharString name="ecircumflex">
          -44 129 257 rmoveto
          -75 callsubr
          251 75 rmoveto
          -74 callsubr
          -107 287 rmoveto
          -84 callsubr
          endchar
        </CharString>
        <CharString name="edieresis">
          -44 129 257 rmoveto
          -75 callsubr
          251 75 rmoveto
          -74 callsubr
          -15 214 rmoveto
          -92 callsubr
          -209 hmoveto
          -83 callsubr
          endchar
        </CharString>
        <CharString name="egrave">
          -44 129 257 rmoveto
          -75 callsubr
          251 75 rmoveto
          -74 callsubr
          -25 224 rmoveto
          -86 callsubr
          endchar
        </CharString>
        <CharString name="eight">
          249 325 rmoveto
          44.6666564941 -17.3333435059 32 -17.6666564941 19.3333435059 -18 27.3333435059 -26 13.6666564941 -34.6666717529 0 -43.3333282471 0 -41.3333435059 -12.3333435059 -32.6666564941 -24.6666564941 -24 -24.6666564941 -24 -31.6666870117 -12 -38.6666564941 0 -30.6666717529 0 -28 9.66667175293 -25.3333282471 19.3333282471 -32.6666717529 25.3333435059 -16.3333282471 35.3333129883 0 45.3333435059 rrcurveto
          0 37.3333282471 13.3333282471 32.3333435059 26.6666717529 27.3333282471 17.3333282471 16.6666564941 29.3333435059 19.6666870117 41.3333282471 22.6666564941 rrcurveto
          -5 283 rmoveto
          71.3333435059 35.6666564941 -32.6666870117 -65.3333129883 hvcurveto
          0 -48.6666564941 -36.3333435059 -38.6666870117 -72.6666564941 -28.6666564941 -66 30 -33 40 0 50 rrcurveto
          62.6666870117 33.6666717529 31.3333129883 67.3333282471 vhcurveto
          4 -636 rmoveto
          70 0 54.3333435059 20 38.6666564941 40 34 34.6666564941 17 45.3333435059 0 56 0 87.3333282471 -50.3333435059 64.6666717529 -100.666656494 42 72 38.6666564941 36 51.6666870117 0 64.6666564941 0 44.6666870117 -17.6666564941 36.3333129883 -35.3333435059 28 -32.6666564941 25.3333129883 -38.3333435059 12.6666870117 -44 0 rrcurveto
          -49.3333282471 0 -40.3333435059 -11.6666870117 -31.3333282471 -23.3333129883 -36.6666564941 -27.3333129883 -18.3333435059 -39.6666870117 0 -52 0 -34 9.66665649414 -29.3333435059 19.3333435059 -24.6666564941 14.6666564941 -18 25.6666717529 -20.6666564941 36.6666717529 -23.3333435059 -44.6666717529 -20 -34.9999847412 -28.6666564941 -25.3333435059 -37.3333435059 -22 -34 -11 -36 0 -38 rrcurveto
          0 -61.3333435059 21.3333435059 -48.6666564941 42.6666564941 -36 38.6666717529 -32 47 -16 55.3333282471 0 rrcurveto
          endchar
        </CharString>
        <CharString name="ellipsis">
          80 505 -16 rmoveto
          -70 callsubr
          -189 hmoveto
          20 0 16 6.5 12 13 12 13 6 16.5 0 20 0 20.6666564941 -6 16.6666870117 -12 12.6666564941 -12 12.6666564941 -16 6.33334350586 -20 0 -20.6666564941 0 -16.3333435059 -6.33334350586 -12 -12.6666564941 -12 -12.6666564941 -6 -16.6666870117 0 -20.6666564941 rrcurveto
          0 -20 6.16667175293 -16.5 12.3333282471 -13 12.3333435059 -13 16.1666564941 -6.5 20 0 rrcurveto
          -189 hmoveto
          -70 callsubr
          endchar
        </CharString>
        <CharString name="emdash">
          459 27 292 rmoveto
          946 71 -946 hlineto
          endchar
        </CharString>
        <CharString name="endash">
          34 292 rmoveto
          432 71 -432 hlineto
          endchar
        </CharString>
        <CharString name="equal">
          -100 51 287 rmoveto
          338 65 -338 hlineto
          -217 vmoveto
          338 65 -338 hlineto
          endchar
        </CharString>
        <CharString name="eth">
          22 428 358 rmoveto
          5.33334350586 -29.3333435059 2.66665649414 -32 0 -34.6666564941 0 -56.6666717529 -13.6666564941 -46.6666564941 -27.3333435059 -36.6666717529 -30 -40 -42.6666564941 -20 -55.3333435059 0 -48 0 -37.3333282471 21.3333435059 -26.6666717529 42.6666564941 -24 36.6666717529 -11.6666564941 43.3333282471 0.666656494141 50 0.666656494141 53.3333435059 12.6666717529 43 24.6666717529 32.6666564941 rrcurveto
          27.3333282471 36.6666564941 39.6666717529 18.3333435059 52 0 62 0 50.3333435059 -27.3333435059 38.6666564941 -54.6666564941 rrcurveto
          -216 255 rmoveto
          -69 143 vlineto
          22 -34 14.3333435059 -26.6666564941 6.66665649414 -19.3333435059 -28.6666564941 29.3333435059 -40 14.6666564941 -51.3333435059 0 -79.3333282471 0 -60.8333435059 -23.8333435059 -42.3333282471 -47.6666564941 -42.3333282471 -47.6666564941 -21.1666717529 -64.5 0 -81.3333435059 0 -70 19.6666717529 -59.6666564941 39.3333282471 -49.3333435059 42.6666717529 -54 55.3333282471 -27 68 0 rrcurveto
          91.3333435059 0 68 32.3333282471 44.6666564941 64.6666717529 37.3333435059 54.6666717529 19.3333435059 75.3333282471 1.33331298828 96 0.666687011719 67.3333435059 -24.6666870117 79.3333129883 -50 91.3333435059 rrcurveto
          94 0 1 69 -136 0 rlineto
          -31.3333435059 45.3333129883 -33 39.3333740234 -34.6666564941 33.3333129883 rrcurveto
          -67 -45 rlineto
          15.3333282471 -12.6666870117 22.6666717529 -24.3333129883 30 -36 rrcurveto
          endchar
        </CharString>
        <CharString name="exclam">
          -306 161 192 rmoveto
          514 -85 -514 vlineto
          37 -205 rmoveto
          16.6666717529 0 14 5.33332824707 11.3333282471 10.6666717529 11.3333282471 10.6666717529 5.66667175293 13.6666564941 0 16.6666717529 0 16.6666717529 -5.66667175293 13.8333282471 -11.3333282471 11 -11.3333282471 11 -14 5.5 -16.6666717529 0 -16 0 -13.3333435059 -5.66665649414 -10.6666564941 -11.3333435059 -10.6666717529 -11.3333435059 -5.33332824707 -13.6666564941 0 -16 rrcurveto
          0 -16 5.33332824707 -13.5 10.6666717529 -11 10.6666564941 -11 13.3333435059 -5.5 16 0 rrcurveto
          endchar
        </CharString>
        <CharString name="exclamdown">
          -306 68 501 rmoveto
          -604 84 604 vlineto
          -38 205 rmoveto
          -16 0 -13.5 -5.5 -11 -11 -11 -11 -5.5 -13.5 0 -16 0 -16 5.5 -13.6666870117 11 -11.3333129883 11 -11.3333129883 13.5 -5.66668701172 16 0 16.6666717529 0 13.8333282471 5.5 11 11 11 11 5.5 13.8333129883 0 16.6666870117 rrcurveto
          0 16.6666870117 -5.5 13.6666259766 -11 10.6666870117 -11 10.6666870117 -13.8333282471 5.33331298828 -16.6666717529 0 rrcurveto
          endchar
        </CharString>
        <CharString name="f">
          -217 336 651 rmoveto
          38 51 rlineto
          -32.6666564941 20.6666870117 -18.6666870117 11.3333129883 -4.66665649414 2 -16 6.66668701172 -23 3.33331298828 -30 0 -51.3333282471 0 -39 -18.6666870117 -26.6666717529 -37.3333129883 -24 -33.3333129883 -12 -43 0 -52.6666870117 rrcurveto
          -66 -78 -65 78 -430 76 430 139 65 -139 63 vlineto
          0 31.3333129883 5 27 10 22.6666870117 14 29.3333129883 21 14.3333740234 28 -0.666687011719 26 -0.666687011719 28.6666564941 -10.3333129883 31.3333435059 -20 rrcurveto
          endchar
        </CharString>
        <CharString name="fi">
          -57 351 hmoveto
          81 489 -81 hlineto
          -15 162 rmoveto
          38 54 rlineto
          -32 20 -18.6666564941 11.3333129883 -5.33334350586 2.66668701172 -16 6 -23 3 -30 0 -56 0 -41.3333282471 -22.6666870117 -26.6666717529 -45.3333129883 -19.3333435059 -33.3333129883 -9.66665649414 -39.6666870117 0 -46 rrcurveto
          -66 -78 -65 78 -430 76 430 139 65 -139 63 vlineto
          0 31.3333129883 5 27 10 22.6666870117 14 29.3333129883 21 14.3333740234 28 -0.666687011719 26 -0.666687011719 28.6666564941 -10.3333129883 31.3333435059 -20 rrcurveto
          endchar
        </CharString>
        <CharString name="five">
          43 238 -179 rmoveto
          66 0 54.6666564941 26 43.3333435059 52 40 46.6666717529 20 53.3333282471 0 60 0 64 -20 53 -40 42 -36 37.3333282471 -39 18.6666717529 -42 0 -58.6666717529 0 -46 -16.6666564941 -33.3333282471 -33.3333435059 rrcurveto
          223 270 61 -346 -333 vlineto
          68 -30 rlineto
          41.3333282471 32.6666717529 39.3333435059 16.3333282471 37.3333282471 0 32.6666564941 0 28.3333435059 -12.3333282471 24 -24.6666717529 26.6666564941 -27.3333282471 13.3333435059 -34.6666717529 0 -42 0 -44.6666717529 -11.6666564941 -38 -23.3333435059 -31.3333282471 -26 -34.6666564941 -35.6666564941 -17.3333435059 -45.3333435059 0 -61.3333282471 0 -51.0000152588 25 -40.6666564941 50 rrcurveto
          -35 -46 rlineto
          16 -26 26 -22.3333282471 36 -18.6666717529 36 -18.6666717529 36 -9.33332824707 36 0 rrcurveto
          endchar
        </CharString>
        <CharString name="fl">
          -46 445 1 rmoveto
          697 -81 vlineto
          -7 -12 rlineto
          -22.6666564941 14 -17.3333435059 8.83331298828 -12 3.66668701172 -12 3.66668701172 -18.6666564941 1.83331298828 -25.3333435059 0 -51.3333282471 0 -39 -19.3333129883 -26.6666717529 -38.6666870117 -23.3333435059 -33.3333129883 -11.6666564941 -43 0 -52.6666870117 rrcurveto
          -41 -79 -66 79 vlineto
          -1 -424 78 0 1 425 136 0 0 66 -138 0 rlineto
          -0.66667175293 10.6666564941 -0.33332824707 12.3333435059 0 14 -0.66667175293 31.3333129883 5 27 10.6666717529 22.6666870117 14 29.3333129883 21 14.3333740234 28 -0.666687011719 34 -0.666687011719 24 -4.33331298828 14 -8 19.3333435059 -15.3333129883 14 -12.3333740234 8.66665649414 -9.33331298828 rrcurveto
          -601 vlineto
          endchar
        </CharString>
        <CharString name="florin">
          -180 360 610 rmoveto
          42 56 rlineto
          -32.6666564941 21.3333129883 -18.3333435059 11.6666870117 -4 2 -16 6.66668701172 -22.6666564941 3.33331298828 -29.3333435059 0 -50.6666717529 -0.666687011719 -40 -18.3333129883 -29.3333282471 -36 -25.3333282471 -32 -15.3333282471 -42.3333129883 -5.33334350586 -52.6666870117 rrcurveto
          -4 -41 -78 -1 -6 -66 79 1 -51 -545 78 1 52 546 135 0 6 65 -137 0 rlineto
          0 4.66665649414 0.66667175293 12.3333435059 1.33332824707 20 rrcurveto
          1 4 rlineto
          6 74 27.6666717529 37 49.3333282471 0 26 0 29 -10.3333129883 32 -20.6666870117 rrcurveto
          endchar
        </CharString>
        <CharString name="four">
          305 367 rmoveto
          -291 -187 vlineto
          252 -76 rmoveto
          100 76 -100 433 -58 hlineto
          -285 -433 0 -76 278 0 0 -168 65 0 rlineto
          endchar
        </CharString>
        <CharString name="fraction">
          -4 141 66 rmoveto
          370 472 -78 50 -371 -472 rlineto
          endchar
        </CharString>
        <CharString name="g">
          -30 508 398 rmoveto
          0 66 -130 -20 rlineto
          -12 18 -18.3333435059 15.6666564941 -24.6666564941 13.3333435059 -28 14.6666564941 -29.3333435059 7.66665649414 -30.6666564941 0.666687011719 -52 0.666687011719 -44 -16.3333435059 -36 -33.3333435059 -38.6666564941 -36.6666564941 -19.3333435059 -43.3333435059 0 -50 0.66667175293 -57.3333435059 20.9999847412 -46.3333282471 41.3333435059 -35.3333282471 rrcurveto
          -41 -41 rlineto
          -16 -16 -8 -17 0 -18 0 -15.3333435059 6.83332824707 -16.5 13.6666717529 -17.6666564941 13.6666564941 -17.6666717529 14.1666870117 -11.5 14.6666564941 -5.33332824707 -46 -43.3333282471 -23 -43.3333282471 0 -43.3333435059 0 -39.3333282471 18 -30.6666717529 36 -22 30 -18 36 -9 42 0 rrcurveto
          3 hlineto
          61.3333435059 0 56.3333129883 14.3333282471 51.3333435059 28.6666717529 60 33.3333282471 30 45.3333282471 0 57.3333435059 0 56 -22 36.3333282471 -44 16.6666717529 -24.6666564941 9.33334350586 -46.6666870117 4.66665649414 -68.6666564941 0 -53.3333282471 0 -32.6666717529 1.33334350586 -12 2.66665649414 -25.3333282471 5.33334350586 -12.6666717529 11.6666564941 0 18 rrcurveto
          0 20 13 18 26 16 11.3333282471 -8 22 -4 32.6666717529 0 56 0 47.3333435059 18.6666717529 38.6666564941 37.3333282471 34 33.3333282471 17 41.6666717529 0 50 0 21.3333435059 -5.33334350586 22 -10.6666564941 22.6666564941 rrcurveto
          -53 -64 rmoveto
          0 -36.6666564941 -10.3333435059 -29 -20.6666564941 -21.3333435059 -22.6666564941 -24 -29.6666870117 -12 -36.6666564941 0 -31.3333282471 0 -25.8333435059 11.5 -20.3333282471 23 -20.3333282471 23 -10.1666717529 27.5 0 32 0 32 10.1666717529 28.3333435059 20.3333282471 24.6666564941 20.3333282471 24.6666564941 26.8333435059 12.3333435059 33.3333282471 0 rrcurveto
          32.6666564941 0 27.3333435059 -11 22 -22 23.3333435059 -24 11.6666564941 -27.6666564941 0 -31.3333435059 rrcurveto
          36 -390 rmoveto
          0 -35.3333435059 -18.3333435059 -28.6666564941 -36.6666564941 -22 -31.3333435059 -18.6666717529 -34.6666564941 -9.33332824707 -38 0 -29.3333282471 0 -25.6666717529 6 -22 12 -26.6666564941 15.3333282471 -13.3333435059 21.3333282471 0 27.3333435059 0 18 6 19.3333282471 12 20.6666717529 13.3333282471 23.3333282471 15 12 16.6666717529 0.66667175293 rrcurveto
          36 2 33 1 30 0 76 0 38 -21.6666717529 0 -43.3333282471 rrcurveto
          endchar
        </CharString>
        <CharString name="germandbls">
          8 334 -15 rmoveto
          44.6666564941 0 39.3333435059 15.5 34 31 34 31 17 37.5 0 44 0 35.3333282471 -6.5 28.3333435059 -13 21.3333282471 -13 21.3333282471 -22.5 17.3333282471 -32 13.3333435059 rrcurveto
          -79 26 rlineto
          -34 10.6666564941 -23 9 -12 7.33334350586 -18.6666717529 11.3333435059 -9.33332824707 13.6666564941 0 16 0 21.3333435059 7.66667175293 17.6666564941 15.3333282471 14 15.3333435059 14 18.3333129883 6.33334350586 21.3333435059 -1.33334350586 33.3333435059 -2 32 -6.33334350586 30.6666564941 -10.6666564941 24 40 12 36.3333435059 0 32.6666564941 rrcurveto
          0 56.6666870117 -18.6666564941 44.3333129883 -37.3333435059 32 -36 30 -46.6666564941 15 -57.3333435059 0 rrcurveto
          -134 -67 -62 -124 hvcurveto
          -529 78 529 vlineto
          0 37.3333129883 10.3333282471 29.3333740234 20.6666717529 21.3333129883 20.6666717529 21.3333129883 29 10.6666870117 37.3333282471 0 29.3333435059 0 26.6666564941 -7.66668701172 24 -15.3333129883 28 -18 14 -29.3333129883 0 -40.6666870117 0 -4.66668701172 -4.33334350586 -9 -8.66665649414 -13.3333129883 -12.6666564941 2 -13 1 -13.3333435059 0 rrcurveto
          -49.3333435059 0 -38.1666564941 -13.3333435059 -27 -26.6666564941 -27 -26.6666564941 -13.5 -38 0 -49.3333435059 0 -57.3333435059 32.6666717529 -39.6666564941 65.3333282471 -22 rrcurveto
          81 -25 rlineto
          52 -17.3333282471 26 -26 0 -34.6666717529 0 -23.3333435059 -9.33334350586 -19 -18.6666564941 -14.6666564941 -18.6666564941 -14.6666564941 -21.3333435059 -7.33334350586 -24 0 -34 0 -26 4 -18 8 -20.6666717529 8.66665649414 -19.6666564941 17.3333435059 -18.6666717529 26 rrcurveto
          -42 -65 rlineto
          24.6666717529 -28 27.6666564941 -19.6666717529 30.6666717529 -11.3333282471 26 -9.33332824707 33.6666564941 -4.66667175293 41.3333435059 0 rrcurveto
          endchar
        </CharString>
        <CharString name="grave">
          -212 266 556 rmoveto
          -99 callsubr
          endchar
        </CharString>
        <CharString name="greater">
          -176 99 42 rmoveto
          217 247 -217 240 -75 -3 188 -241 -187 -240 rlineto
          endchar
        </CharString>
        <CharString name="greaterequal">
          -291 90 119 rmoveto
          154 167 -154 162 -70 -3 130 -162 -130 -161 rlineto
          1 -88 rmoveto
          221 40 -221 hlineto
          endchar
        </CharString>
        <CharString name="guillemotleft">
          -151 240 286 rmoveto
          131 162 -71 3 -153 -162 153 -167 71 3 rlineto
          -272 161 rmoveto
          130 162 -70 3 -154 -162 154 -167 70 3 rlineto
          endchar
        </CharString>
        <CharString name="guillemotright">
          -148 215 122 rmoveto
          153 167 -153 162 -71 -3 131 -162 -131 -161 rlineto
          -70 -3 rmoveto
          152 167 -152 162 -72 -3 131 -162 -131 -161 rlineto
          endchar
        </CharString>
        <CharString name="guilsinglleft">
          -222 148 286 rmoveto
          131 162 -71 3 -152 -162 152 -167 71 3 rlineto
          endchar
        </CharString>
        <CharString name="guilsinglright">
          -224 118 122 rmoveto
          153 167 -153 162 -71 -3 130 -162 -130 -161 rlineto
          endchar
        </CharString>
        <CharString name="h">
          -29 371 hmoveto
          78 338 hlineto
          0 46.6666564941 -15.6666564941 40.5 -31.3333435059 34.3333435059 -31.3333435059 34.3333435059 -39 17.1666564941 -46.6666564941 0 -44 0 -47.6666717529 -24 -51.3333282471 -48 rrcurveto
          257 -79 -696 79 340 vlineto
          0 24.6666564941 16.6666717529 23.6666870117 33.3333282471 22.6666564941 30.6666717529 21.3333435059 28.3333282471 10.6666564941 26 0 31.3333435059 0 24 -12.3333435059 16.6666564941 -24.6666564941 14.6666564941 -21.3333435059 7.33334350586 -27 0 -32.6666564941 rrcurveto
          endchar
        </CharString>
        <CharString name="hungarumlaut">
          -179 224 561 rmoveto
          93 114 -63 0 -93 -114 rlineto
          -60 hmoveto
          93 114 -63 0 -93 -114 rlineto
          endchar
        </CharString>
        <CharString name="hyphen">
          -161 50 267 rmoveto
          280 93 -280 hlineto
          endchar
        </CharString>
        <CharString name="i">
          -308 117 602 rmoveto
          15.3333282471 0 12.6666717529 5.33331298828 10 10.6666870117 10 10.6666870117 5 13 0 15.3333129883 0 15.3333129883 -5 12.8333740234 -10 10.3333129883 -10 10.3333129883 -12.6666717529 5.16668701172 -15.3333282471 0 -15.3333435059 0 -12.8333129883 -5.16668701172 -10.3333435059 -10.3333129883 -10.3333435059 -10.3333129883 -5.16665649414 -12.8333740234 0 -15.3333129883 rrcurveto
          0 -15.3333129883 5.16665649414 -13 10.3333435059 -10.6666870117 10.3333435059 -10.6666870117 12.8333129883 -5.33331298828 15.3333435059 0 rrcurveto
          -46 -602 rmoveto
          81 495 -81 hlineto
          endchar
        </CharString>
        <CharString name="iacute">
          -307 77 hmoveto
          80 495 -80 hlineto
          -31 62 rmoveto
          -85 callsubr
          endchar
        </CharString>
        <CharString name="icircumflex">
          -331 77 hmoveto
          80 495 -80 hlineto
          38 124 rmoveto
          -88 callsubr
          endchar
        </CharString>
        <CharString name="idieresis">
          -334 77 hmoveto
          80 495 -80 hlineto
          138 51 rmoveto
          -82 callsubr
          -210 hmoveto
          14.6666717529 0 12 5 9.33332824707 10 9.33332824707 10 4.66667175293 12.3333129883 0 14.6666870117 0 14.6666870117 -4.66667175293 12.3333129883 -9.33332824707 10 -9.33332824707 10 -12 5 -14.6666717529 0 -14.6666717529 0 -11.8333282471 -5 -9 -10 -9 -10 -4.5 -12.3333129883 0 -14.6666870117 rrcurveto
          0 -14.6666870117 4.5 -12.3333129883 9 -10 9 -10 11.8333282471 -5 14.6666717529 0 rrcurveto
          endchar
        </CharString>
        <CharString name="igrave">
          -292 77 hmoveto
          80 495 -80 hlineto
          131 61 rmoveto
          -86 callsubr
          endchar
        </CharString>
        <CharString name="infinity">
          -5 383 264 rmoveto
          38.6666564941 0 33.5 12.8333435059 28.3333435059 25.6666564941 28.3333435059 25.6666564941 14.1666564941 31.8333435059 0 38 0 38 -14.1666564941 31.6666564941 -28.3333435059 25.3333435059 -28.3333435059 25.3333129883 -33.5 12.6666870117 -38.6666564941 0 -48.6666564941 0 -38.3333435059 -18.3333129883 -28 -36.6666870117 -28.6666717529 36.6666870117 -38.6666564941 18.3333129883 -48.6666717529 0 rrcurveto
          -38.6666564941 0 -33.5 -12.6666870117 -28.3333435059 -25.3333129883 -28.3333282471 -25.3333435059 -14.1666717529 -31.6666564941 0 -38 0 -38 14.1666717529 -31.8333435059 28.3333282471 -25.6666564941 28.3333435059 -25.6666564941 33.5 -12.8333435059 38.6666564941 0 48.6666717529 0 38.6666564941 18.6666564941 28.6666717529 37.3333435059 27.3333435059 -37.3333435059 38.3333129883 -18.6666564941 49.3333435059 0 rrcurveto
          218 vmoveto
          24 0 20.6666564941 -7.83334350586 17.3333435059 -15.6666564941 17.3333435059 -15.6666564941 8.66665649414 -19.8333435059 0 -24 0 -24 -8.66665649414 -20 -17.3333435059 -16 -17.3333435059 -16 -20.6666564941 -8 -24 0 -24 0 -20.6666564941 8 -17.3333435059 16 -17.3333435059 16 -8.66665649414 20 0 24 rrcurveto
          0 23.3333435059 8.83334350586 19.6666564941 17.6666564941 16 17.6666564941 16 20.5 8 23.3333435059 0 rrcurveto
          -231 hmoveto
          24 0 20.6666717529 -7.83334350586 17.3333282471 -15.6666564941 17.3333282471 -15.6666564941 8.66667175293 -19.8333435059 0 -24 0 -25.3333435059 -8.33332824707 -20 -16.6666717529 -14.6666564941 -16.6666717529 -14.6666564941 -21 -7.33334350586 -25.3333282471 0 -25.3333435059 0 -21 7.5 -16.6666564941 15 -16.6666564941 15 -8.33334350586 19.8333435059 0 24.6666564941 rrcurveto
          0 23.3333435059 8.83334350586 19.6666564941 17.6666564941 16 17.6666564941 16 20.5000152588 8 23.3333282471 0 rrcurveto
          endchar
        </CharString>
        <CharString name="integral">
          -238 281 611 rmoveto
          38 76 rlineto
          -32 17.3333129883 -28.3333435059 8.66668701172 -24.6666564941 0 -111.333343506 0 -55.6666564941 -59.3333129883 0 -118.666687012 0 -56 17.6666564941 -82.6666564941 35.3333435059 -109.333343506 35.3333282471 -109.333328247 17.6666717529 -72.6666717529 0 -36 0 -78 -18 -42.3333282471 -36 -6.66667175293 -22 -4 -26.3333435059 6.33332824707 -30.6666564941 16.6666717529 rrcurveto
          -19 -82 rlineto
          40 -12.6666717529 27.3333435059 -6.33332824707 14.6666564941 0 108.666671753 0 54.3333282471 64.3333435059 0 128.666656494 0 56.6666564941 -17.5 84.1666717529 -35 111.666671753 -35 111.666656494 -17.5 76.1666870117 0 40.6666564941 0 26 5.33332824707 21.6666870117 10.6666717529 17.3333129883 12.6666717529 20.6666870117 18.6666564941 10.3333129883 24.6666717529 0 rrcurveto
          16 0 16 -6.33331298828 16 -12.6666870117 rrcurveto
          endchar
        </CharString>
        <CharString name="j">
          -308 130 604 rmoveto
          15.3333282471 0 12.8333435059 5.16668701172 10.3333282471 10.3333129883 10.3333282471 10.3333129883 5.16667175293 12.8333740234 0 15.3333129883 0 15.3333129883 -5.16667175293 12.8333740234 -10.3333282471 10.3333129883 -10.3333282471 10.3333129883 -12.8333435059 5.16668701172 -15.3333282471 0 -15.3333435059 0 -12.8333129883 -5.16668701172 -10.3333435059 -10.3333129883 -10.3333435059 -10.3333129883 -5.16665649414 -12.8333740234 0 -15.3333129883 rrcurveto
          0 -15.3333129883 5.16665649414 -12.8333740234 10.3333435059 -10.3333129883 10.3333435059 -10.3333129883 12.8333129883 -5.16668701172 15.3333435059 0 rrcurveto
          -72 -713 rmoveto
          17.3333435059 12.6666564941 8.66665649414 29.3333435059 0 46 rrcurveto
          516 79 -560 vlineto
          0 -65.3333282471 -48 -51 -96 -36.6666717529 rrcurveto
          -32 75 rlineto
          27.3333282471 8 23.6666717529 11.3333435059 20 14.6666564941 rrcurveto
          endchar
        </CharString>
        <CharString name="k">
          -65 395 -25 rmoveto
          70 43 -235 254 198 203 -68 46 -218 -245 0 421 -79 0 0 -697 79 0 0 192 34 34 rlineto
          endchar
        </CharString>
        <CharString name="l">
          -307 156 hmoveto
          698 -78 -698 vlineto
          endchar
        </CharString>
        <CharString name="less">
          -175 132 285 rmoveto
          187 241 -74 3 -218 -240 219 -247 73 3 rlineto
          endchar
        </CharString>
        <CharString name="lessequal">
          -291 112 283 rmoveto
          132 162 -72 3 -153 -162 153 -167 72 3 rlineto
          -223 -88 rmoveto
          221 40 -221 hlineto
          endchar
        </CharString>
        <CharString name="logicalnot">
          72 474 28 rmoveto
          84 315 -470 -93 386 hlineto
          endchar
        </CharString>
        <CharString name="lozenge">
          35 275 85 rmoveto
          254 248 -254 249 -255 -249 rlineto
          258 152 rmoveto
          156 -153 -156 -152 -156 152 rlineto
          endchar
        </CharString>
        <CharString name="lslash">
          -259 166 362 rmoveto
          78 39 -1 78 -76 -39 0 202 -88 0 0 -247 -63 -32 -1 -78 63 32 1 -317 88 0 rlineto
          endchar
        </CharString>
        <CharString name="m">
          235 634 hmoveto
          79 351 hlineto
          0 42 -14.6666870117 37.3333435059 -29.3333129883 32.6666564941 -29.3333129883 32.6666564941 -35.3333740234 16.3333435059 -41.3333129883 0 -49.3333129883 0 -52.6666870117 -32 -56 -64 -10.6666564941 26 -16.3333435059 21.6666564941 -22 17.3333435059 -22 17.3333435059 -24.6666564941 8.66665649414 -27.3333435059 0 -42.6666717529 0 -46.6666564941 -27.3333435059 -50.6666717529 -54.6666564941 rrcurveto
          70 -79 -495 79 331 vlineto
          0 26 14.1666717529 25 28.3333282471 24 28.3333282471 24 27.1666717529 12 26 0 26 0 20.1666564941 -8.5 14.3333435059 -17 14.3333435059 -17 7.16665649414 -21.8333435059 0 -26.6666564941 rrcurveto
          -351 78 322 vlineto
          0 33.3333435059 17 29.6666564941 34 26 28 21.3333435059 23 10.6666564941 18 0 rrcurveto
          58.6666870117 29.3333129883 -32.3333435059 -64.6666564941 hvcurveto
          endchar
        </CharString>
        <CharString name="macron">
          -135 105 594 rmoveto
          234 65 -234 hlineto
          endchar
        </CharString>
        <CharString name="minus">
          -43 52 285 rmoveto
          394 63 -394 hlineto
          endchar
        </CharString>
        <CharString name="mu">
          -33 444 -61 rmoveto
          64 48 rlineto
          -4.66665649414 4.66667175293 -9 6.66665649414 -13.3333435059 8.66667175293 -26 16.6666717529 -13 36.3333282471 0 56 rrcurveto
          371 -80 -338 vlineto
          0 -24 -11.5 -23 -23 -22 -23 -22 -23.5 -11 -24 0 rrcurveto
          -77.3333282471 -38.6666717529 32.3333435059 64.6666564941 hvcurveto
          342 -73 -682 73 225 vlineto
          8 -16 14.3333282471 -12.6666717529 20.6666717529 -9.33332824707 18.6666717529 -8.66667175293 19 -4.33332824707 19.3333282471 0 22 0 20 7.33332824707 18 14.6666717529 rrcurveto
          63 61 rlineto
          9.33334350586 -56 26.6666564941 -40.6666717529 44 -25.3333282471 rrcurveto
          endchar
        </CharString>
        <CharString name="n">
          -29 371 hmoveto
          78 338 hlineto
          0 46.6666564941 -15.6666564941 40.5 -31.3333435059 34.3333435059 -31.3333435059 34.3333435059 -38.6666564941 17.1666564941 -46 0 -28 0 -26.3333282471 -7 -24.6666717529 -14 -17.3333282471 -9.33334350586 -21.6666717529 -17 -26 -24.6666564941 rrcurveto
          56 -79 -495 79 328 vlineto
          0 31.3333435059 16.6666717529 27.6666564941 33.3333282471 24 29.3333282471 21.3333435059 28.3333435059 10.6666564941 27.3333282471 0 31.3333435059 0 24 -12.3333435059 16.6666564941 -24.6666564941 14.6666564941 -21.3333435059 7.33334350586 -27 0 -32.6666564941 rrcurveto
          endchar
        </CharString>
        <CharString name="nine">
          233 446 rmoveto
          47.3333435059 0 38.6666564941 -16.8333435059 30 -33.6666564941 30 -33.6666564941 15 -38.1666870117 0 -42.6666564941 0 -44.6666717529 -15.3333435059 -38.8333282471 -30.6666564941 -33 -30.6666564941 -33 -37 -16.5 -43.3333435059 0 -38.6666717529 0 -32.6666564941 18 -26.6666717529 36 -25.3333435059 32.6666717529 -12.6666564941 36.3333282471 0 40 rrcurveto
          0 40 12 37 24 34 26 38 32 19 38 0 rrcurveto
          -11 -642 rmoveto
          91.3333435059 0 68.3333129883 51 45.3333435059 102 34 76 17 89.6666564941 0 103.333343506 0 95.3333435059 -27.6666564941 73.3333129883 -55.3333435059 51.3333435059 -45.3333435059 42.6666564941 -54 21.3333435059 -62.6666564941 0 -62 0 -50.3333435059 -23.6666564941 -38.6666564941 -47.3333435059 -36 -44 -18 -54.6666564941 0 -65.3333435059 rrcurveto
          0 -58.6666717529 19 -51.6666564941 38 -44.6666717529 40 -46.6666564941 49.6666717529 -23.6666717529 59.3333282471 -0.66667175293 41.3333435059 -0.66667175293 34.6666564941 11.6666717529 28 24 21.3333435059 17.3333435059 22.6666564941 29.9999847412 24 42.6666717529 -1.33334350586 -72.6666564941 -14.3333129883 -65.6666717529 -27.3333435059 -58.6666717529 -33.3333435059 -71.3333435059 -44.3333129883 -35.6666564941 -55.3333435059 0 rrcurveto
          -64.6666717529 0 -55.9999847412 22 -47.3333435059 44 rrcurveto
          -29 -61 rlineto
          48.6666564941 -47.3333282471 63.0000152588 -23.6666717529 77.3333282471 0 rrcurveto
          endchar
        </CharString>
        <CharString name="nonbreakingspace">
          -268 endchar
        </CharString>
        <CharString name="nonmarkingreturn">
          -268 endchar
        </CharString>
        <CharString name="notequal">
          -100 163 -15 rmoveto
          52 150 174 0 0 65 -152 0 30 87 122 0 0 65 -99 0 55 161 -61 21 -63 -182 -170 0 0 -65 147 0 -30 -87 rlineto
          -117 -65 95 hlineto
          -44 -129 rlineto
          endchar
        </CharString>
        <CharString name="ntilde">
          -55 376 hmoveto
          79 338 hlineto
          0 46.6666564941 -15.6666564941 40.5 -31.3333435059 34.3333435059 -31.3333435059 34.3333435059 -39 17.1666564941 -46.6666564941 0 -28 0 -26.3333282471 -7 -24.6666717529 -14 -17.3333282471 -9.33334350586 -21.6666717529 -17 -26 -24.6666564941 rrcurveto
          56 -79 -495 79 328 vlineto
          0 31.3333435059 16.6666717529 27.6666564941 33.3333282471 24 29.3333282471 21.3333435059 28.3333435059 10.6666564941 27.3333282471 0 31.3333435059 0 24 -12.3333435059 16.6666564941 -24.6666564941 14.6666564941 -21.3333435059 7.33334350586 -27 0 -32.6666564941 rrcurveto
          -43 224 rmoveto
          9.33334350586 0 13.1666564941 3.83331298828 17 7.66668701172 17 7.66668701172 11.5 7.16662597656 6 6.66668701172 rrcurveto
          -26 60 rlineto
          -18 -16.6666870117 -16.6666564941 -8.33331298828 -15.3333435059 0 -11.3333435059 0 -21 11.5 -30.6666564941 23 -30.6666717529 23 -23.6666564941 11.1666870117 -16.6666717529 -0.666687011719 -16.6666717529 -0.666687011719 -17.8333282471 -5.16662597656 -19 -9.66668701172 -19 -9.66668701172 -14.1666564941 -11.5 -9.33334350586 -13.3333129883 rrcurveto
          26 -59 rlineto
          20.6666717529 28 23.3333282471 14 26 0 8 0 20.3333282471 -11.5 32.6666717529 -23 32.6666564941 -23 25 -11.5 17.3333435059 0 rrcurveto
          endchar
        </CharString>
        <CharString name="numbersign">
          -5 445 560 rmoveto
          0 52 -80 -9 2 77 -58 -8 0 -75 -81 -8 1 75 -57 -6 0 -75 -102 -11 0 -52 101 11 0 -79 -102 -11 0 -52 rlineto
          102 11 -1 -97 57 6 1 97 80 9 -1 -97 57 6 0 97 80 8 0 52 -79 -8 0 78 rlineto
          -137 -14 rmoveto
          80 8 0 -78 -80 -9 rlineto
          endchar
        </CharString>
        <CharString name="o">
          5 275 -11 rmoveto
          82 0 62 33.3333282471 42 66.6666717529 30.6666564941 48.6666717529 15.3333435059 54.3333282471 0 60 0 86 -26 67 -52 48 -42.6666564941 39.3333435059 -51 19.6666564941 -59.3333435059 0 -60 0 -52 -19.6666564941 -44 -39.3333435059 -54 -48 -27 -67 0 -86 rrcurveto
          0 -62 13.6666717529 -54 27.3333282471 -46 40 -67.3333282471 65 -33.6666717529 90 0 rrcurveto
          6 456 rmoveto
          -98 callsubr
          endchar
        </CharString>
        <CharString name="oacute">
          2 280 -11 rmoveto
          -73 callsubr
          6 456 rmoveto
          -98 callsubr
          -61 112 rmoveto
          -89 callsubr
          endchar
        </CharString>
        <CharString name="ocircumflex">
          2 280 -11 rmoveto
          -73 callsubr
          6 456 rmoveto
          -98 callsubr
          -3 174 rmoveto
          -88 callsubr
          endchar
        </CharString>
        <CharString name="odieresis">
          2 280 -11 rmoveto
          -73 callsubr
          6 456 rmoveto
          -98 callsubr
          100 101 rmoveto
          -92 callsubr
          -209 hmoveto
          -81 callsubr
          endchar
        </CharString>
        <CharString name="oe">
          390 281 445 rmoveto
          -98 callsubr
          283 -188 rmoveto
          330 61 hlineto
          0 55.3333435059 -16.3333129883 45.3333129883 -32.6666870117 35.3333435059 -32.6666870117 35.3333435059 -43.6666259766 17.6666564941 -54.6666870117 0 -53.3333129883 0 -46 -13.8333435059 -38.6666870117 -27.6666564941 -38.6666870117 -27.6666564941 -27.3333129883 -39.1666870117 -16 -50.6666564941 -15.3333435059 49.3333435059 -27.3333129883 39.6666564941 -39.3333435059 30 -39.3333435059 30 -45.3333129883 15 -51.3333435059 0 rrcurveto
          -60 0 -52 -19.6666564941 -44 -39.3333435059 -54 -48 -27 -67 0 -86 0 -62 13.6666717529 -54 27.3333282471 -46 40 -67.3333282471 65 -33.6666717529 90 0 107.333343506 0 72 54.6666717529 36.6666564941 109.333328247 28 -110 73 -55 118 0 rrcurveto
          65.3333129883 0 59.3333740234 25.3333282471 53.3333129883 50.6666717529 rrcurveto
          -40 56 rlineto
          -48 -42.6666564941 -43.6666870117 -21.3333435059 -39.3333129883 0 -24 0 -23 5 -22 10 -56 25.3333435059 -28 61.9999847412 0 98.6666717529 rrcurveto
          251 75 rmoveto
          -12 -244 vlineto
          10 41.3333435059 15.1666870117 30.5 20.3333129883 19.6666564941 20.3333129883 19.6666564941 30.1666870117 9.83334350586 40 0 rrcurveto
          72 36 -36.3333435059 -72.6666564941 hvcurveto
          endchar
        </CharString>
        <CharString name="ograve">
          2 280 -11 rmoveto
          -73 callsubr
          6 456 rmoveto
          -98 callsubr
          101 111 rmoveto
          -99 callsubr
          endchar
        </CharString>
        <CharString name="one">
          329 hmoveto
          507 -207 -60 131 -447 vlineto
          endchar
        </CharString>
        <CharString name="oslash">
          5 177 92 rmoveto
          -34.6666717529 35.3333435059 -17.3333282471 51.3333282471 0 67.3333282471 0 55.3333435059 11.6666717529 45.6666564941 23.3333282471 36 28 41.3333435059 40.3333282471 20.6666564941 52.6666717529 0 rrcurveto
          3 hlineto
          77 -29 rmoveto
          40 -33.3333435059 20 -55 0 -76.6666564941 0 -54 -11.3333435059 -44.6666717529 -22.6666564941 -35.3333282471 -26 -42 -38.6666564941 -21 -51.3333435059 0 -9.33334350586 0 -6.66665649414 0.33332824707 -4 0.66667175293 rrcurveto
          74 523 rmoveto
          -21 -68 rlineto
          -12 1.33334350586 -9.33334350586 0.666656494141 -6.66665649414 0 -60 0 -52 -19.6666564941 -44 -39.3333435059 -54 -48 -27 -67 0 -86 0 -49.3333282471 9 -44.6666717529 18 -40 20 -46 29.3333435059 -33.6666717529 38.6666564941 -21.3333282471 rrcurveto
          -19 -62 78 -24 19 61 rlineto
          13.3333282471 -2 14.3333282471 -1 15.3333435059 0 82 0 62 33.3333282471 42 66.6666717529 30.6666564941 48.6666717529 15.3333435059 54.3333282471 0 60 0 112 -41.6666564941 78 -83.3333435059 44 rrcurveto
          21 68 rlineto
          endchar
        </CharString>
        <CharString name="otilde">
          2 280 -11 rmoveto
          -73 callsubr
          6 456 rmoveto
          -98 callsubr
          78 104 rmoveto
          -87 callsubr
          endchar
        </CharString>
        <CharString name="p">
          -24 258 -13 rmoveto
          76.6666564941 0 57.6666870117 28.6666717529 38.6666564941 57.3333282471 32.6666564941 49.3333435059 16.3333435059 64.6666564941 0 80 0 163.333343506 -73.6666564941 81.6666564941 -147.333343506 0 -34 0 -39 -21.3333435059 -44 -42.6666564941 rrcurveto
          47 -79 -692 79 241 vlineto
          35.3333282471 -38 38.6666717529 -19 42 0 rrcurveto
          458 vmoveto
          90 45 -64 -128 hvcurveto
          0 -46.6666717529 -10 -43 -20 -39.3333282471 -24 -46.6666564941 -33.3333435059 -23.3333435059 -42.6666564941 0 -40 0 -40.3333282471 15.6666564941 -40.6666717529 31.3333435059 rrcurveto
          263 vlineto
          6.66667175293 22.6666564941 14.8333282471 19.1666870117 23 15.6666564941 23 15.6666564941 23.8333282471 7.83334350586 24.6666717529 0 rrcurveto
          endchar
        </CharString>
        <CharString name="paragraph">
          -34 437 hmoveto
          642 -69 -642 vlineto
          -71 hmoveto
          642 -91 vlineto
          -54.6666717529 0 -39.6666717529 -11.3333129883 -24.6666564941 -22.6666870117 -24.6666717529 -22.6666870117 -12.3333282471 -38.3333129883 0 -54 -0.66667175293 -104 51.0000152588 -52 102.666656494 0 rrcurveto
          25 -337 hlineto
          endchar
        </CharString>
        <CharString name="parenleft">
          -223 174 -138 rmoveto
          66 30 rlineto
          -40.6666717529 102.666671753 -25.3333282471 69.3333282471 -10 36 -20.6666717529 72 -10.3333282471 74.3333282471 0 76.6666717529 0 125.333343506 34.6666717529 143.333343506 69.3333282471 161.333312988 rrcurveto
          -63 30 rlineto
          -85.3333435059 -139.333312988 -42.6666564941 -153.333343506 0 -167.333343506 0 -160 42.6666564941 -153.666671753 85.3333435059 -147.333328247 rrcurveto
          endchar
        </CharString>
        <CharString name="parenright">
          -225 145 -138 rmoveto
          82.6666717529 142.666671753 41.3333282471 154.666656494 0 166.666671753 0 169.333343506 -41.3333282471 152.333343506 -82.6666717529 135.333312988 rrcurveto
          -64 -30 rlineto
          70 -160 35 -144.666656494 0 -129.333343506 0 -75.3333282471 -10.6666717529 -73.6666717529 -21.3333282471 -72 -9.33332824707 -32 -25.3333282471 -68.6666717529 -41.3333435059 -105.333328247 rrcurveto
          endchar
        </CharString>
        <CharString name="partialdiff">
          11 269 -17 rmoveto
          90.6666564941 0 64.6666870117 31 38.6666564941 62 31.3333435059 50 15.6666564941 73.3333282471 0 96.6666717529 0 178 -39.3333435059 116.666687012 -78.6666564941 55.3333129883 -41.3333435059 29.3333129883 -58.3333129883 14.6666870117 -75.3333435059 0 -47.3333282471 0 -46.6666717529 -6.66668701172 -46 -13.3333129883 rrcurveto
          22 -78 rlineto
          44.6666717529 19.3333129883 46 9.66668701172 47.3333282471 0 50.6666564941 0 39.6666870117 -10.3333129883 28.6666564941 -20.6666870117 17.3333435059 -12.6666870117 15.3333129883 -21.6666259766 13.3333435059 -30.6666870117 11.3333435059 -27.3333435059 7 -26.3333129883 2.66665649414 -25.3333435059 -16 16 -22.6666564941 13 -29.3333435059 10 -26.6666564941 8.66665649414 -26 4.33334350586 -25.3333435059 0 rrcurveto
          -79.3333282471 0 -59.6666717529 -24.6666564941 -40 -49.3333435059 -37.3333282471 -46 -18.3333435059 -63.6666564941 0.66667175293 -81.3333435059 0.66667175293 -69.3333282471 20.3333282471 -58.3333282471 40 -47.3333435059 42 -50 55 -25 68 0 rrcurveto
          162 367 rmoveto
          4 -29.3333435059 2 -29.3333129883 0 -29.3333435059 0 -140 -52.3333435059 -70 -104.666656494 0 -48 0 -37.6666717529 21 -27.3333282471 42 -24 36.6666717529 -12 43.6666564941 0 50.6666717529 0 53.3333435059 10.6666717529 44 21.3333282471 34.6666564941 25.3333282471 41.3333435059 37.6666717529 20.6666564941 50 0 rrcurveto
          59.3333435059 0 51.6666564941 -30 44 -60 rrcurveto
          endchar
        </CharString>
        <CharString name="percent">
          -5 129 410 rmoveto
          -107 callsubr
          -22 -488 rmoveto
          -106 callsubr
          368 51 rmoveto
          36 0 27.6666564941 12 19.3333435059 24 17.3333435059 22 8.66665649414 29.3333435059 0 36.6666564941 0 34 -9.83334350586 28.8333282471 -19.6666564941 23.6666717529 -19.6666564941 23.6666717529 -26.5 11.8333282471 -33.3333435059 0 -33.3333435059 0 -26.6666564941 -11.8333282471 -20 -23.6666717529 -20 -23.6666717529 -10 -28.8333282471 0 -34 rrcurveto
          0 -37.3333435059 9.16665649414 -29.9999847412 18.3333435059 -22.6666717529 18.3333435059 -22.6666717529 27.5 -11.3333282471 36.6666564941 0 rrcurveto
          -273 596 rmoveto
          -105 callsubr
          272 -408 rmoveto
          15.3333435059 0 12 -8 8.66665649414 -16 7.33334350586 -12.6666717529 3.66665649414 -14.6666564941 0 -16.6666717529 0 -16 -3.66665649414 -14 -7.33334350586 -12 -8 -14.6666717529 -11.6666564941 -7.33332824707 -15.3333435059 0 -31.3333435059 0 -15.6666564941 21.3333435059 0 42.6666564941 0 16.6666717529 3.33334350586 14.6666564941 6.66665649414 12.6666717529 rrcurveto
          8.66665649414 16 12 8 15.3333435059 0 rrcurveto
          endchar
        </CharString>
        <CharString name="period">
          -308 128 -9 rmoveto
          19.3333282471 0 15.8333435059 7.33332824707 12.3333282471 14.6666717529 12.3333282471 14.6666717529 6.16667175293 17 0 19.3333282471 0 19.3333435059 -6.16667175293 17 -12.3333282471 14.6666564941 -12.3333282471 14.6666717529 -15.8333435059 7.33332824707 -19.3333282471 0 -19.3333435059 0 -16 -7.33332824707 -12.6666564941 -14.6666717529 -12.6666564941 -14.6666564941 -6.33334350586 -17 0 -19.3333435059 rrcurveto
          0 -19.3333282471 6.33334350586 -17 12.6666564941 -14.6666717529 12.6666564941 -14.6666717529 16 -7.33332824707 19.3333435059 0 rrcurveto
          endchar
        </CharString>
        <CharString name="periodcentered">
          -305 128 334 rmoveto
          19.3333282471 0 16.3333435059 8.33334350586 13.3333282471 16.6666564941 11.3333282471 16 5.66667175293 18 0 20 0 20 -5.66667175293 18 -11.3333282471 16 -13.3333282471 16.6666564941 -16.3333435059 8.33334350586 -19.3333282471 0 -20 0 -16.1666564941 -8.16665649414 -12.3333435059 -16.3333435059 -12.3333435059 -16.3333435059 -6.16665649414 -18.1666564941 0 -20 rrcurveto
          0 -20 6.16665649414 -18.1666564941 12.3333435059 -16.3333435059 12.3333435059 -16.3333435059 16.1666564941 -8.16665649414 20 0 rrcurveto
          endchar
        </CharString>
        <CharString name="perthousand">
          345 734 -6 rmoveto
          35.3333129883 0 27 11.6666717529 18.6666870117 23.3333282471 17.3333129883 21.3333282471 8.66668701172 28.6666717529 0 36 0 33.3333282471 -9.66668701172 28.1666717529 -19.3333129883 23 -19.3333129883 23 -26 11.5 -32.6666870117 0 -32.6666870117 0 -26.1666259766 -11.5 -19.6666870117 -23 -19.6666870117 -23 -9.83331298828 -28.1666717529 0 -33.3333282471 rrcurveto
          0 -36 9 -28.6666717529 18 -21.3333282471 18.6666870117 -23.3333282471 27 -11.6666717529 35.3333129883 0 rrcurveto
          -605 416 rmoveto
          -107 callsubr
          328 -416 rmoveto
          35.3333435059 0 26.9999694824 11.6666717529 18.6666870117 23.3333282471 17.3333129883 21.3333282471 8.66668701172 28.6666717529 0 36 0 33.3333282471 -9.66668701172 28.1666717529 -19.3333129883 23 -19.3333129883 23 -26.0000305176 11.5 -32.6666564941 0 -32.6666564941 0 -26.1666870117 -11.5 -19.6666564941 -23 -19.6666564941 -23 -9.83334350586 -28.1666717529 0 -33.3333282471 rrcurveto
          0 -36 9 -28.6666717529 18 -21.3333282471 18.6666564941 -23.3333282471 27 -11.6666717529 35.3333435059 0 rrcurveto
          -350 -72 rmoveto
          -106 callsubr
          700 231 rmoveto
          14.6666870117 0 12 -7.66667175293 9.33331298828 -15.3333282471 7.33331298828 -12.6666717529 3.66668701172 -14.3333282471 0 -16 0 -15.3333435059 -3.66668701172 -14 -7.33331298828 -12.6666564941 -8.66668701172 -14.6666717529 -11.6666259766 -7.33332824707 -14.6666870117 0 -15.3333129883 0 -12 7.33332824707 -8.66668701172 14.6666717529 -6.66668701172 11.3333435059 -3.33331298828 14 0 16.6666564941 rrcurveto
          0 16 3.33331298828 14.3333282471 6.66668701172 12.6666717529 8.66668701172 15.3333282471 11.6666259766 7.66667175293 14.6666870117 0 rrcurveto
          -605 416 rmoveto
          -105 callsubr
          328 -416 rmoveto
          14.6666564941 0 12 -7.66667175293 9.33334350586 -15.3333282471 7.33334350586 -12.6666717529 3.66665649414 -14.3333282471 0 -16 0 -15.3333435059 -3.66665649414 -14 -7.33334350586 -12.6666564941 -8.66665649414 -14.6666717529 -11.6666870117 -7.33332824707 -14.6666564941 0 -15.3333435059 0 -12 7.33332824707 -8.66665649414 14.6666717529 -6.66665649414 11.3333435059 -3.33334350586 14 0 16.6666564941 rrcurveto
          0 16 3.33334350586 14.3333282471 6.66665649414 12.6666717529 8.66665649414 15.3333282471 11.6666870117 7.66667175293 14.6666564941 0 rrcurveto
          endchar
        </CharString>
        <CharString name="pi">
          -23 374 hmoveto
          88 508 -393 -66 40 -442 88 442 177 hlineto
          endchar
        </CharString>
        <CharString name="plus">
          -43 279 282 rmoveto
          167 63 -167 176 -61 -176 -165 -63 165 -186 61 hlineto
          endchar
        </CharString>
        <CharString name="plusminus">
          -40 279 280 rmoveto
          167 62 -167 175 -62 -175 -164 -62 hlineto
          164 -1 0 -184 62 0 rlineto
          -213 -83 rmoveto
          374 54 -374 hlineto
          endchar
        </CharString>
        <CharString name="product">
          54 511 hmoveto
          642 -388 -642 95 562 197 -562 vlineto
          endchar
        </CharString>
        <CharString name="q">
          -30 368 -197 rmoveto
          80 692 -80 -40 hlineto
          -12 15.3333435059 -17.3333435059 13.3333129883 -22.6666564941 11.3333435059 -22.6666564941 11.3333435059 -21 5.66665649414 -19.3333435059 0 -76.6666717529 0.666687011719 -57.3333282471 -28.6666870117 -38 -58 -29.3333282471 -45.3333435059 -14.6666717529 -56.3333129883 0 -67.3333435059 0 -67.3333282471 14.3333282471 -59 28.6666717529 -50.6666717529 34 -62 48.3333282471 -31 62.6666717529 0 rrcurveto
          33.3333435059 0 47.6666564941 22.3333282471 62 44.6666717529 rrcurveto
          311 vmoveto
          -259 vlineto
          -38.6666564941 -30 -37 -15 -35.3333435059 0 -42.6666717529 0 -34 21.3333435059 -25.3333282471 42.6666564941 -21.3333282471 36.6666717529 -10.6666717529 41 0 45.3333282471 0 53.3333435059 8.66667175293 43.6666564941 17.3333282471 34 22.6666717529 44.6666564941 35.6666564941 22.3333435059 48.6666717529 0 25.3333435059 0 23.1666564941 -7.5 21 -15 rrcurveto
          21 -15 14.1666564941 -19.5 7.33334350586 -24 rrcurveto
          endchar
        </CharString>
        <CharString name="question">
          -57 343 371 rmoveto
          45.3333435059 37.3333435059 22.6666564941 45.6666564941 0 54 0 50 -17.5 41.3333129883 -35 32.6666870117 -35 32.6666870117 -42.8333435059 16.3333129883 -50.6666564941 0 -90 0 -64 -47 -38 -94 rrcurveto
          67 -35 rlineto
          22.6666564941 69.3333129883 42.6666717529 34.6666870117 62.6666717529 0 29.3333435059 0 24 -9.33331298828 18.6666564941 -18.6666870117 18.6666564941 -18.6666870117 9.33334350586 -24 0 -29.3333129883 0 -21.3333435059 -9.33334350586 -21.3333129883 -18.6666564941 -21.3333435059 -7.33334350586 -8.66665649414 -17.3333129883 -15.8333435059 -27.3333435059 -23 -27.3333282471 -23 -19.3333435059 -21.1666564941 -11.3333282471 -19.3333435059 rrcurveto
          -13.3333282471 -22.6666564941 -6.66667175293 -27 0 -31.3333435059 0 -16 1.66667175293 -21.3333282471 3.33332824707 -26.6666717529 rrcurveto
          69 hlineto
          -2.66667175293 28.6666717529 -0.666656494141 16.3333282471 1.33332824707 4 10 31.3333435059 5.66665649414 17 1.33334350586 2.66665649414 7.33334350586 18.6666564941 10 14.6666870117 12.6666564941 10.6666564941 21.3333435059 17.3333435059 16.3333129883 12.6666564941 11.3333435059 8 rrcurveto
          -124 -384 rmoveto
          16.6666717529 0 14 5.33332824707 11.3333282471 10.6666717529 11.3333435059 10.6666717529 5.66665649414 13.6666564941 0 16.6666717529 0 16.6666717529 -5.66665649414 13.8333282471 -11.3333435059 11 -11.3333282471 11 -14 5.5 -16.6666717529 0 -16 0 -13.3333282471 -5.66665649414 -10.6666717529 -11.3333435059 -10.6666717529 -11.3333435059 -5.33332824707 -13.6666564941 0 -16 rrcurveto
          0 -16 5.33332824707 -13.5 10.6666717529 -11 10.6666717529 -11 13.3333282471 -5.5 16 0 rrcurveto
          endchar
        </CharString>
        <CharString name="questiondown">
          -82 109 222 rmoveto
          -50 -35.3333282471 -25 -50.6666717529 0 -66 0 -50.6666717529 17.6666717529 -41.5 35.3333282471 -32.3333282471 35.3333435059 -32.3333435059 42.9999847412 -16.1666564941 50.6666717529 0 88.6666564941 0 64 47 39.3333435059 94 rrcurveto
          -68 34 rlineto
          -22.6666564941 -68.6666717529 -42.6666870117 -34.3333282471 -62.6666564941 0 -29.3333282471 0 -24 9.33332824707 -18.6666717529 18.6666717529 -18.6666564941 18.6666717529 -9.33334350586 24 0 29.3333282471 0 22 9.33334350586 21.3333435059 18.6666564941 20.6666564941 6 6.66667175293 18 16.3333282471 30 26 53.3333282471 46 26.6666717529 73.3333435059 0 100.666656494 rrcurveto
          0 26.6666564941 -2.33334350586 25.6666870117 -4.66665649414 24.6666564941 rrcurveto
          -80 hlineto
          11.3333282471 -126 -26 -85.6666564941 -63.3333282471 -45.3333435059 rrcurveto
          117 459 rmoveto
          -16.6666717529 0 -14 -5.33331298828 -11.3333282471 -10.6666870117 -11.3333282471 -10.6666870117 -5.66667175293 -13.6666259766 0 -16.6666870117 0 -16 5.83332824707 -13.6666870117 11.6666717529 -11.3333129883 11.6666717529 -11.3333129883 13.8333282471 -5.66668701172 16 0 16 0 13.3333282471 5.66668701172 10.6666717529 11.3333129883 10.6666564941 11.3333129883 5.33334350586 13.6666870117 0 16 rrcurveto
          0 16 -5.33334350586 13.5 -10.6666564941 11 -10.6666717529 11 -13.3333282471 5.5 -16 0 rrcurveto
          endchar
        </CharString>
        <CharString name="quotedbl">
          -212 258 681 rmoveto
          31.3333435059 15.6666564941 -18.6666870117 -37.3333129883 hvcurveto
          0 -16 -4.66665649414 -25.3333129883 -9.33334350586 -34.6666870117 -9.33334350586 -34.6666870117 -8.33331298828 -24.6666564941 -7.33334350586 -14.6666564941 rrcurveto
          -14 hlineto
          -8.66667175293 14.6666564941 -9.16665649414 24.6666564941 -9.66667175293 34.6666870117 -9.66667175293 34.6666870117 -4.83332824707 25.3333129883 0 16 rrcurveto
          37.3333129883 16 18.6666870117 32 vhcurveto
          -142 hmoveto
          31.3333282471 15.6666717529 -18.6666870117 -37.3333129883 hvcurveto
          0 -16 -4.66667175293 -25.3333129883 -9.33332824707 -34.6666870117 -9.33332824707 -34.6666870117 -8.33334350586 -24.6666564941 -7.33332824707 -14.6666564941 rrcurveto
          -13 hlineto
          -8.66665649414 14.6666564941 -9.16668701172 24.6666564941 -9.66665649414 34.6666870117 -9.66665649414 34.6666870117 -4.83334350586 25.3333129883 0 16 rrcurveto
          37.3333129883 15.6666564941 18.6666870117 31.3333435059 vhcurveto
          endchar
        </CharString>
        <CharString name="quotedblbase">
          -124 31 -72 rmoveto
          -104 callsubr
          156 12 rmoveto
          10 20.6666717529 9 31.3333282471 8 42 8 40 4 32.6666564941 0 25.3333435059 rrcurveto
          97 hlineto
          -0.666656494141 -56.6666717529 -30.6666870117 -68 -60.6666564941 -79.3333282471 rrcurveto
          endchar
        </CharString>
        <CharString name="quotedblleft">
          -98 425 708 rmoveto
          -69 callsubr
          -156 -12 rmoveto
          -69 callsubr
          endchar
        </CharString>
        <CharString name="quotedblright">
          -98 31 528 rmoveto
          -68 callsubr
          156 12 rmoveto
          10 20.6666870117 9 31.3333129883 8 42 8 40 4 32.6666870117 0 25.3333129883 rrcurveto
          97 hlineto
          -0.666656494141 -56.6666870117 -30.6666870117 -68 -60.6666564941 -79.3333129883 rrcurveto
          endchar
        </CharString>
        <CharString name="quoteleft">
          -328 186 708 rmoveto
          -10 -21.3333129883 -9 -31 -8 -40.6666870117 -8 -40.6666870117 -4 -33 0 -25.3333129883 rrcurveto
          -97 hlineto
          0.66667175293 56.6666870117 30.6666717529 68 60.6666564941 79.3333129883 rrcurveto
          endchar
        </CharString>
        <CharString name="quoteright">
          -300 47 528 rmoveto
          -68 callsubr
          endchar
        </CharString>
        <CharString name="quotesinglbase">
          -327 97 -128 rmoveto
          24.6666564941 36 15.6666717529 25 6.66667175293 14 12.6666717529 27.3333282471 6.66665649414 28.6666717529 0.66667175293 30 0 17.3333282471 -6.83332824707 15.8333282471 -13.6666717529 14.3333435059 -13.6666717529 14.3333435059 -15.4999847412 7.16665649414 -17.3333435059 0 -18 0 -15.8333282471 -7 -13.6666717529 -14 -13.6666717529 -14 -6.83332824707 -16 0 -18 rrcurveto
          0 -46 21.3333282471 -24 42.6666717529 -2 -2.66665649414 -13.3333282471 -7.33334350586 -16.0000152588 -12 -18.6666564941 -18.6666717529 -29.3333435059 -9.66665649414 -14.9999847412 -0.66667175293 -0.66667175293 rrcurveto
          endchar
        </CharString>
        <CharString name="quotesingle">
          -347 109 683 rmoveto
          30.6666717529 15.3333282471 -18.6666870117 -37.3333129883 hvcurveto
          0 -20 -4.83332824707 -26 -9.66667175293 -32 -9.66667175293 -32 -10.1666717529 -24.6666564941 -10.6666564941 -17.3333435059 -10 11.3333435059 -10.6666564941 24.3333129883 -11.3333435059 37.3333435059 -11.3333435059 35.3333129883 -5.66665649414 26.3333740234 0 17.3333129883 rrcurveto
          37.3333129883 16 18.6666870117 32 vhcurveto
          endchar
        </CharString>
        <CharString name="r">
          -199 298 410 rmoveto
          24 80 rlineto
          -26 10.6666564941 -18.6666564941 5.33334350586 -11.3333435059 0 -43.3333282471 0 -41.3333435059 -31 -39.3333282471 -62 rrcurveto
          82 -79 -495 79 317 vlineto
          0 18 12.5 22 25 26 25 26 21.5 13 18 0 23.3333435059 0.666656494141 18 -4 12.6666564941 -8.66665649414 rrcurveto
          endchar
        </CharString>
        <CharString name="radical">
          -38 218 -10 rmoveto
          141 649 -79 0 -107 -523 -43 221 -75 -40 86 -307 rlineto
          endchar
        </CharString>
        <CharString name="registered">
          255 133 316 rmoveto
          0 74 25.6666717529 62.8333435059 51.3333282471 51.6666564941 51.3333435059 51.6666870117 62.6666564941 25.8333129883 74 0 74 0 62.8333129883 -25.8333129883 51.6666870117 -51.6666870117 51.6666870117 -51.6666564941 25.8333129883 -62.8333435059 0 -74 0 -74 -25.8333129883 -62.8333282471 -51.6666870117 -51.6666717529 -51.6666870117 -51.6666564941 -62.8333129883 -25.8333435059 -74 0 rrcurveto
          -74 0 -62.8333435059 25.8333435059 -51.6666564941 51.6666564941 -51.6666717529 51.6666717529 -25.8333282471 62.8333282471 0 74 rrcurveto
          -65 hmoveto
          -94 callsubr
          424 -208 rmoveto
          71 13 rlineto
          -41.3333129883 40 -28.3333435059 30 -15.3333435059 20 rrcurveto
          -69 93 rlineto
          64.6666564941 12 32.6666870117 36.3333435059 0.666656494141 60.6666564941 0.666656494141 74.6666564941 -37 37.6666564941 -74.6666564941 0.666687011719 -16 0 -43 -0.666687011719 -70 -1.33331298828 rrcurveto
          -410 57 185 vlineto
          29 1 rlineto
          55.3333435059 -90.6666717529 46.3333129883 -64 37.3333435059 -37.3333282471 rrcurveto
          -112 379 rmoveto
          50 0.666656494141 25 -22.3333129883 0 -45.3333435059 0 -30 -7 -20.5 -14 -11 -14 -11 -22.6666564941 -5.5 -31.3333435059 0 rrcurveto
          -42 144 hlineto
          endchar
        </CharString>
        <CharString name="ring">
          -236 172 576 rmoveto
          26 0 21.6666717529 8 17.3333282471 16 17.3333282471 16 8.66667175293 21 0 26 0 25.3333129883 -8.66667175293 20.6666870117 -17.3333282471 16 -17.3333282471 16 -21.6666717529 8 -26 0 -26 0 -21.6666564941 -8 -17.3333435059 -16 -17.3333435059 -16 -8.66665649414 -20.6666870117 0 -25.3333129883 rrcurveto
          0 -26 8.66665649414 -21 17.3333435059 -16 17.3333435059 -16 21.6666564941 -8 26 0 rrcurveto
          130 vmoveto
          28.6666717529 14.3333282471 -14.3333129883 -28.6666870117 -29.3333129883 -14.3333282471 -14.6666870117 -28.6666717529 -28.6666717529 -14.3333282471 14.6666870117 29.3333129883 28.6666870117 14.3333282471 14.3333129883 28.6666717529 hvcurveto
          endchar
        </CharString>
        <CharString name="s">
          -104 214 -14 rmoveto
          -97 callsubr
          endchar
        </CharString>
        <CharString name="scaron">
          -104 214 -14 rmoveto
          -97 callsubr
          55 631 rmoveto
          -95 callsubr
          endchar
        </CharString>
        <CharString name="section">
          -149 186 -87 rmoveto
          40 0 32.5 11.3333435059 25 22.6666564941 25 22.6666717529 12.5 31 0 39.3333282471 0 35.3333435059 -13.6666564941 25.6666564941 -27.3333435059 16 27.3333435059 20 13.6666564941 30.3333282471 0 40.6666717529 0 49.3333435059 -32.3333435059 34 -64.6666564941 18.6666564941 rrcurveto
          -64 18 rlineto
          -18 8 -9 9.66665649414 0 11.3333435059 0 21.3333435059 4.33332824707 15 8.66667175293 8.66665649414 8.66667175293 8.66665649414 15 4.33334350586 21.3333282471 0 22.6666717529 0 29.3333282471 -11.3333435059 36 -22.6666564941 rrcurveto
          22 50 rlineto
          -36.6666564941 22.6666564941 -36.0000152588 11.6666870117 -35.3333282471 0.666656494141 -34.6666717529 0.666656494141 -28.8333282471 -10.3333129883 -23 -21.3333435059 -23 -21.3333435059 -11.5 -28 0 -34.6666564941 0 -35.3333435059 15.3333435059 -25.6666564941 30.6666564941 -16 -30.6666564941 -20.6666717529 -15.3333435059 -30.3333282471 0 -40 0 -42 21.6666564941 -28.3333435059 43.3333435059 -14.6666564941 rrcurveto
          3.33332824707 -2 5.66667175293 -2 8 -2 18.6666717529 -4.66665649414 12.6666564941 -3.33334350586 6.66667175293 -2 43.3333282471 -11.3333435059 21.6666717529 -18.3333282471 0 -25.3333282471 0 -15.3333282471 -7 -13.5 -14 -11.6666717529 -14 -11.6666717529 -15 -5.83332824707 -16 0 -40 0 -34.3333435059 15 -28.6666564941 30 rrcurveto
          -32 -49 rlineto
          35.3333435059 -34.6666564941 43.3333282471 -17.3333435059 51.3333282471 0 rrcurveto
          -4 340 rmoveto
          26 -6.66667175293 18 -6.33332824707 10 -6 14 -8.66667175293 7 -13 0 -17.3333282471 0 -23.3333282471 -13 -17.3333435059 -26 -11.3333282471 -12 3.33332824707 -10.3333282471 3 -8.66667175293 2.66667175293 -36 10 -18 12.3333282471 0 14.6666717529 0 38.6666717529 16.3333282471 21.3333282471 32.6666717529 4 rrcurveto
          endchar
        </CharString>
        <CharString name="semicolon">
          -287 147 361 rmoveto
          18.6666717529 0 15.6666564941 7 12.6666717529 14 12.6666717529 14 6.33332824707 16.6666564941 0 19.3333435059 0 19.3333435059 -6.16667175293 16.8333129883 -12.3333282471 14.3333435059 -12.3333282471 14.3333435059 -15.8333435059 7.16665649414 -19.3333282471 0 -19.3333435059 0 -16.3333129883 -7.16665649414 -13.3333435059 -14.3333435059 -13.3333435059 -14.3333435059 -6.66665649414 -16.8333129883 0 -19.3333435059 rrcurveto
          0 -19.3333435059 6.66665649414 -16.6666564941 13.3333435059 -14 13.3333435059 -14 16.3333129883 -7 19.3333435059 0 rrcurveto
          -82 -433 rmoveto
          -104 callsubr
          endchar
        </CharString>
        <CharString name="seven">
          450 443 rmoveto
          61 -373 -60 287 vlineto
          -263 -591 78 -22 rlineto
          endchar
        </CharString>
        <CharString name="six">
          259 372 rmoveto
          41.3333435059 0 34.1666564941 -15.3333435059 27 -30.6666564941 27 -30.6666564941 13.5 -41.0000152588 0 -51.3333282471 0 -38.6666717529 -13.6666564941 -36 -27.3333435059 -33.3333282471 -28.6666564941 -35.3333282471 -33.6666870117 -17.6666717529 -38.6666564941 0 -46.6666717529 0 -37.3333282471 19 -28 38 -24.6666564941 33.3333282471 -12.3333435059 39.3333435059 0 45.3333282471 rrcurveto
          0 45.3333435059 15.6666564941 37.6666564941 31.3333435059 30 29.3333282471 28 33.6666717529 14 38 0 rrcurveto
          1 -394 rmoveto
          58 0 50.1666564941 23 42.3333435059 46 42.3333435059 46 21.1666564941 53.3333282471 0 60.6666717529 0 67.3333435059 -20.6666564941 56.3333129883 -41.3333435059 45.3333435059 -38.6666564941 42.6666564941 -45.3333435059 21.3333435059 -52 0 -62.6666717529 0 -55.6666564941 -34.6666564941 -48.6666717529 -69.3333435059 2.66665649414 72 21.0000152588 60.5 39.3333282471 49 rrcurveto
          39.3333282471 49 49.0000152588 24.5 58.6666564941 0 40 0 41.3333435059 -11 42.6666564941 -22 rrcurveto
          29 61 rlineto
          -49.3333435059 25.3333129883 -50.6666564941 12.6666870117 -52 0 -95.3333282471 0 -74.6666717529 -39.3333129883 -54 -78.6666870117 -48 -70.6666564941 -24 -90.6666870117 0 -110.666656494 0 -100 24.3333282471 -75 48.6666717529 -50 41.3333282471 -42.6666717529 54.3333435059 -21.3333282471 67.3333282471 0 rrcurveto
          endchar
        </CharString>
        <CharString name="slash">
          -156 93 -170 rmoveto
          297 857 -81 17 -296 -857 rlineto
          endchar
        </CharString>
        <CharString name="space">
          -268 endchar
        </CharString>
        <CharString name="sterling">
          -65 426 -7 rmoveto
          16 77 rlineto
          -40.6666564941 11.3333435059 -43 5.66665649414 -45.3333435059 0 -20 0 -36.3333435059 -3.66665649414 -52.6666564941 -7.33334350586 20 16.6666564941 10 34 0 51.3333435059 0 41.3333282471 -2 41.0000152588 -4 40.6666564941 rrcurveto
          119 69 -136 hlineto
          -11.3333282471 56.6666564941 -5.66667175293 34 0 11.3333435059 0 32 8.66667175293 27.3333129883 17.3333282471 22.6666870117 19.3333282471 25.3333129883 25.0000152588 12.6666870117 30.6666564941 0 14.6666564941 0 27.3333435059 -9.66668701172 40 -19.3333129883 rrcurveto
          30 61 rlineto
          -37.3333435059 21.3333129883 -39.3333129883 10.6666870117 -41.3333435059 0 -52 0 -40.6666717529 -16.8333129883 -29.3333282471 -33.6666870117 -29.3333282471 -33.6666870117 -14.6666717529 -43.1666259766 0 -52.6666870117 0 -10.6666564941 5 -35.3333435059 10 -60 rrcurveto
          -53 -69 60 hlineto
          9.33332824707 -43.3333435059 4.66667175293 -43.3333282471 0 -43.3333282471 0 -38.6666717529 -11.3333282471 -30.3333282471 -22.6666717529 -22 -7.33334350586 -7.33334350586 -5.66665649414 -4.33331298828 -4 -1.33334350586 -15.3333435059 -6 -13 -4.33332824707 -10.6666564941 -2.66667175293 rrcurveto
          11 -68 rlineto
          56.6666717529 14 72.3333282471 7 88 0 51.3333435059 0 43 -4.66667175293 34.6666564941 -9.33332824707 rrcurveto
          endchar
        </CharString>
        <CharString name="summation">
          -50 92 hmoveto
          356 77 hlineto
          -252 -1 217 273 -215 212 250 0 0 72 -346 0 -10 -76 217 -215 -217 -272 rlineto
          endchar
        </CharString>
        <CharString name="t">
          -190 214 -8 rmoveto
          55.3333435059 0 46.3333129883 21.6666717529 37.3333435059 43.3333282471 rrcurveto
          -39 54 rlineto
          -31.3333435059 -30 -26 -15 -20.6666564941 0 rrcurveto
          -38 -19 22.3333435059 44.6666564941 hvcurveto
          0 297 129 -1 0 67 -129 0 0 101 -79 0 0 -101 -79 0 0 -66 79 0 0 -285 rlineto
          0 -39.3333435059 9 -34 18 -28.6666564941 20.6666717529 -34 29 -17 37.3333282471 0 rrcurveto
          endchar
        </CharString>
        <CharString name="thorn">
          -19 272 -10 rmoveto
          77.3333435059 0 57.6666564941 27 38 54 32.6666564941 47.3333435059 16 64.3333282471 -0.666656494141 81.3333282471 -0.666656494141 67.3333435059 -16.6666870117 55 -32.6666564941 42.6666564941 -36 47.3333435059 -50.6666564941 23.6666564941 -65.3333435059 0 -62.6666717529 0 -49.3333282471 -27 -36 -54 rrcurveto
          266 -83 -880 86 236 vlineto
          60 -38 rlineto
          17.3333282471 -8.66667175293 22 -4.33332824707 26.6666717529 0 rrcurveto
          5 440 rmoveto
          46 0 34.3333435059 -19 22.6666564941 -38 18 -30.6666564941 9 -40 0 -49.3333435059 0 -51.3333282471 -9.33334350586 -43.3333435059 -18.6666564941 -35.3333282471 -24 -44.6666564941 -35.6666564941 -22.3333435059 -47.3333435059 0 -21.3333282471 0 -22.3333435059 3.33332824707 -23.3333282471 6.66667175293 -28.6666717529 7.33334350586 -19.3333282471 10.3333129883 -10 13.3333435059 rrcurveto
          -1 244 rlineto
          12 25.3333435059 18 21.1666564941 24 17 24 17 25.6666717529 8.5 27.3333282471 0 rrcurveto
          endchar
        </CharString>
        <CharString name="three">
          230 -179 rmoveto
          66 0 53.1666564941 19.8333282471 40.3333435059 39.6666717529 40.3333435059 39.6666564941 20.1666564941 50.5000152588 0 61.3333282471 0 43.3333435059 -11.6666564941 39.1666564941 -23.3333435059 35 -23.3333435059 35 -31.3333129883 21.5 -39.3333435059 8 25.3333435059 13.3333282471 19.6666564941 20.6666717529 14 28 13.3333435059 26 6.66665649414 28 0 30 rrcurveto
          0 51.3333435059 -16.6666564941 40.3333129883 -33.3333435059 29.3333435059 -30 26 -37.6666564941 13 -45.3333435059 0 -52 0 -52 -32 -52 -64 rrcurveto
          51 -43 rlineto
          26.6666717529 46 35.6666564941 23 44.6666717529 0 23.3333435059 0 20.1666564941 -8.5 17 -17 17 -17 8.5 -22.1666564941 0 -27.3333435059 0 -62.6666564941 -31.3333435059 -41.0000152588 -62.6666564941 -19.3333282471 -14 -4 -22 -2 -30 0 rrcurveto
          -63 vlineto
          32 -0.66667175293 22.3333282471 -0.33332824707 12.6666717529 0 46 0 35.3333435059 -15 24.6666564941 -30 20 -24.6666564941 10 -29.3333435059 0 -34 0 -46 -11.8333435059 -35.1666717529 -23.6666564941 -24.3333282471 -23.6666564941 -24.3333435059 -32.5 -12.1666564941 -41.3333435059 0 -41.3333282471 0 -42 20.3333435059 -42.6666717529 40.6666564941 rrcurveto
          -38 -53 rlineto
          44.6666564941 -51.3333282471 53.0000152588 -25.6666717529 61.3333282471 0 rrcurveto
          endchar
        </CharString>
        <CharString name="tilde">
          -166 275 549 rmoveto
          9.33334350586 0 13.1666564941 3.66668701172 17 7.33331298828 17 7.33331298828 11.5 7.33337402344 6 7.33331298828 rrcurveto
          -26 60 rlineto
          -18 -16.6666870117 -16.6666564941 -8.33331298828 -15.3333435059 0 -11.3333435059 0 -20.8333282471 11.5 -30.3333282471 23 -30.3333282471 23 -23.5 11.1666870117 -16.6666717529 -0.666687011719 -17.3333435059 -0.666687011719 -18.1666564941 -5 -19 -9.33331298828 -19 -9.33331298828 -14.1666717529 -11.6666870117 -9.33332824707 -14 rrcurveto
          26 -59 rlineto
          21.3333435059 28 23.6666564941 14 26 0 8 0 20.1666717529 -11.5 32.3333282471 -23 32.3333282471 -23 24.8333282471 -11.5 17.3333435059 0 rrcurveto
          endchar
        </CharString>
        <CharString name="trademark">
          100 174 315 rmoveto
          275 89 52 -248 -52 95 -275 vlineto
          445 199 rmoveto
          -199 64 329 -75 vlineto
          -89 -229 -89 229 -78 0 0 -329 60 0 0 201 77 -201 54 0 rlineto
          endchar
        </CharString>
        <CharString name="two">
          85 hmoveto
          367 77 -261 hlineto
          135 113 rlineto
          58.6666564941 48.6666717529 29.3333435059 57.9999847412 0 67.3333435059 0 47.3333435059 -15.8333435059 37.6666564941 -31.6666564941 28 -31.6666564941 28 -39.1666870117 14 -46.6666564941 0 -58 0 -55.3333282471 -31 -52.6666717529 -62 rrcurveto
          46 -49 rlineto
          36.6666717529 48 40.6666564941 24 44.6666717529 0 24 0 20.3333435059 -8.33334350586 16.6666564941 -16.6666564941 16.6666564941 -16.6666564941 8.66668701172 -20.3333435059 0.666656494141 -24 0 -26.6666564941 -7.33334350586 -24.6666870117 -14.6666564941 -22.6666564941 -12.6666564941 -18.6666564941 -22.3333435059 -23.3333435059 -32 -28 rrcurveto
          -165 -142 rlineto
          endchar
        </CharString>
        <CharString name="u">
          -30 446 hmoveto
          495 -78 -331 vlineto
          0 -27.3333282471 -16 -25.3333282471 -32 -23.3333435059 -32 -23.3333435059 -30 -11.6666564941 -28 0 rrcurveto
          -58.6666717529 -29.3333282471 37 74 hvcurveto
          331 -79 -335 vlineto
          0 -46.6666564941 12.6666564941 -40.6666870117 25.3333435059 -34.6666564941 28 -37.3333282471 36.6666717529 -18.6666717529 45.3333282471 0 52.6666564941 0 51 23.3333282471 49.3333435059 46.6666717529 rrcurveto
          11 -52 rlineto
          endchar
        </CharString>
        <CharString name="uacute">
          -59 451 hmoveto
          -71 callsubr
          -197 557 rmoveto
          -89 callsubr
          endchar
        </CharString>
        <CharString name="ucircumflex">
          -59 451 hmoveto
          -71 callsubr
          -118 619 rmoveto
          -88 callsubr
          endchar
        </CharString>
        <CharString name="udieresis">
          -59 451 hmoveto
          -71 callsubr
          -15 546 rmoveto
          -92 callsubr
          -209 hmoveto
          -83 callsubr
          endchar
        </CharString>
        <CharString name="ugrave">
          -59 451 hmoveto
          -71 callsubr
          -25 556 rmoveto
          -86 callsubr
          endchar
        </CharString>
        <CharString name="underscore">
          -5 5 -109 rmoveto
          525 59 -525 hlineto
          endchar
        </CharString>
        <CharString name="v">
          -77 261 -12 rmoveto
          181 491 -76 22 -129 -386 -136 386 -79 -22 185 -491 rlineto
          endchar
        </CharString>
        <CharString name="w">
          194 561 -9 rmoveto
          153 488 -73 20 -105 -394 -128 387 -70 0 -123 -388 -111 395 -77 -20 148 -488 63 0 132 370 130 -370 rlineto
          endchar
        </CharString>
        <CharString name="x">
          -49 411 -26 rmoveto
          67 46 -186 231 169 221 -62 35 -146 -197 -141 198 -74 -44 162 -218 -181 -225 67 -45 161 214 rlineto
          endchar
        </CharString>
        <CharString name="y">
          -61 249 -84 rmoveto
          -96 callsubr
          endchar
        </CharString>
        <CharString name="yacute">
          -61 170 572 rmoveto
          -89 callsubr
          126 -715 rmoveto
          -96 callsubr
          endchar
        </CharString>
        <CharString name="ydieresis">
          -74 254 -84 rmoveto
          209 565 -70 17 -129 -353 -152 354 -76 -21 191 -436 -41 -96 rlineto
          -25.3333282471 -45.3333435059 -28 -22.3333129883 -30.6666717529 0.666656494141 -14.6666564941 0.666656494141 -16.6666870117 4.66668701172 -18.6666564941 8.66665649414 rrcurveto
          -25 -71 rlineto
          36 -12 23.3333435059 -6 10.6666564941 0 32.6666717529 0 31.5 10.8333282471 30.3333282471 21.6666717529 30.3333282471 21.6666717529 20.8333435059 26.4999847412 11.3333282471 31.3333435059 rrcurveto
          89 630 rmoveto
          -92 callsubr
          -209 hmoveto
          14.6666717529 0 11.8333282471 5 9 10 9 10 4.5 12.3333129883 0 14.6666870117 0 14.6666870117 -4.5 12.3333129883 -9 10 -9 10 -11.8333282471 5 -14.6666717529 0 -14.6666564941 0 -12 -5 -9.33334350586 -10 -9.33334350586 -10 -4.66665649414 -12.3333129883 0 -14.6666870117 rrcurveto
          0 -14.6666870117 4.66665649414 -12.3333129883 9.33334350586 -10 9.33334350586 -10 12 -5 14.6666564941 0 rrcurveto
          endchar
        </CharString>
        <CharString name="yen">
          -10 300 283 rmoveto
          178 358 -91 0 -132 -264 -132 264 -90 0 178 -358 0 -18 -89 0 0 -59 89 0 0 -60 -89 0 0 -59 89 0 0 -85 rlineto
          89 85 86 59 -86 60 86 59 -86 hlineto
          endchar
        </CharString>
        <CharString name="z">
          -59 53 hmoveto
          386 70 -279 hlineto
          22.6666717529 26.6666564941 15 18.3333435059 7.33332824707 10 rrcurveto
          220 299 0 70 -362 0 0 -64 269 0 rlineto
          -22.6666564941 -25.3333435059 -17 -20.3333129883 -11.3333435059 -15.3333435059 rrcurveto
          -228 -303 rlineto
          endchar
        </CharString>
        <CharString name="zcaron">
          -59 58 hmoveto
          386 70 -279 hlineto
          22.6666717529 26.6666564941 15 18.3333435059 7.33332824707 10 rrcurveto
          220 299 0 70 -362 0 0 -64 269 0 rlineto
          -22.6666564941 -26.6666564941 -16.6666870117 -20.3333435059 -10.6666564941 -14 rrcurveto
          -229 -303 rlineto
          249 551 rmoveto
          -95 callsubr
          endchar
        </CharString>
        <CharString name="zero">
          482 257 rmoveto
          0 70.6666564941 -20.6666564941 59.3333435059 -41.3333435059 48 -44 51.3333435059 -56.6666564941 25.6666564941 -69.3333435059 0 -69.3333282471 0 -56.1666717529 -24.5 -43 -49 -43 -49 -21.5 -60.8333435059 0 -72.6666564941 0 -76.6666717529 20.3333282471 -62.6666717529 40.6666717529 -48.6666564941 42.6666564941 -51.3333282471 57.6666717529 -25.6666717529 72.6666717529 0 rrcurveto
          73.3333435059 0 57.6666564941 27.3333282471 42 54.6666717529 38.6666564941 49.3333435059 19.3333435059 61.3333282471 0 73.3333282471 rrcurveto
          -63 hmoveto
          0 -57.3333282471 -13.3333435059 -47 -26.6666564941 -36.6666717529 -30.6666564941 -42.6666564941 -43.3333435059 -21.3333435059 -56 0 -50.6666717529 0 -41.6666564941 22 -32.6666717529 44 -29.3333435059 40 -14.6666564941 46 0 52 0 52 14.6666564941 45 29.3333435059 38 32.6666717529 42 42 21 51.3333282471 0 rrcurveto
          50 0 40.6666564941 -19.1666564941 31.3333435059 -38.3333435059 31.3333435059 -38.3333435059 15.6666564941 -46.5 0 -54.6666564941 rrcurveto
          endchar
        </CharString>
</ttFont>
